<svg width="82" height="72" viewBox="0 0 82 72" fill="none" xmlns="http://www.w3.org/2000/svg">
<path fill-rule="evenodd" clip-rule="evenodd" d="M21 58.5C26.0751 53.3525 32.5346 51 38.1429 51C46.6082 51 53.0678 53.3525 58.1429 58.5C53.0678 61.157 46.6039 63.5 38.1429 63.5C32.5389 63.5 26.0765 61.157 21 58.5ZM32.4285 11L15.2857 46C13.3769 42.746 12.4285 39.1199 12.4285 36C12.4285 23.8527 20.8696 14.1575 32.4285 11ZM55.2857 43.5C50.8249 42.0954 46.0173 41.3184 41 41C35.9812 41.3184 31.1736 42.0954 26.7143 43.5L41 16L55.2857 43.5ZM69.5715 36C69.5715 39.1199 68.6231 42.746 66.7143 46L49.5715 11C61.1304 14.1575 69.5715 23.8527 69.5715 36ZM41 1C18.9439 1 1 16.7009 1 36C1 55.2991 18.9439 71 41 71C63.0561 71 81 55.2991 81 36C81 16.7009 63.0561 1 41 1Z" fill="#BEC8D5"/>
<path d="M58.1429 58.5L58.6067 59.3859C58.8874 59.2389 59.0819 58.9676 59.1309 58.6545C59.1798 58.3414 59.0774 58.0236 58.855 57.7979L58.1429 58.5ZM15.2857 46L14.4231 46.506C14.6094 46.8236 14.9552 47.0131 15.3232 46.9993C15.6912 46.9855 16.0218 46.7706 16.1837 46.4399L15.2857 46ZM55.2857 43.5L54.9854 44.4538C55.371 44.5753 55.7917 44.4526 56.0516 44.143C56.3115 43.8334 56.3595 43.3977 56.1731 43.039L55.2857 43.5ZM41 41L41.0633 40.002C41.0212 39.9993 40.9789 39.9993 40.9367 40.002L41 41ZM26.7143 43.5L25.8269 43.039C25.6405 43.3978 25.6885 43.8334 25.9484 44.143C26.2084 44.4526 26.6292 44.5753 27.0147 44.4538L26.7143 43.5ZM41 16L41.8874 15.539C41.7154 15.2078 41.3732 15 41 15C40.6268 15 40.2846 15.2078 40.1126 15.539L41 16ZM66.7143 46L65.8163 46.4399C65.9782 46.7706 66.3088 46.9855 66.6768 46.9993C67.0448 47.0131 67.3906 46.8236 67.5769 46.506L66.7143 46ZM49.5715 11L49.835 10.0354C49.4559 9.9318 49.0513 10.0599 48.8009 10.3627C48.5504 10.6655 48.5006 11.087 48.6734 11.4399L49.5715 11ZM41 0C40.4477 0 40 0.447715 40 1C40 1.55228 40.4477 2 41 2V0ZM21.7121 59.2021C26.5984 54.246 32.8012 52 38.1429 52V50C32.2681 50 25.5517 52.459 20.2879 57.7979L21.7121 59.2021ZM38.1429 52C46.4008 52 52.5821 54.2842 57.4308 59.2021L58.855 57.7979C53.5535 52.4208 46.8157 50 38.1429 50V52ZM57.679 57.6141C52.709 60.2161 46.4043 62.5 38.1429 62.5V64.5C46.8036 64.5 53.4265 62.098 58.6067 59.3859L57.679 57.6141ZM38.1429 62.5C32.7732 62.5 26.4797 60.2394 21.4637 57.614L20.5363 59.386C25.6733 62.0747 32.3046 64.5 38.1429 64.5V62.5ZM31.5305 10.5601L14.3876 45.5601L16.1837 46.4399L33.3266 11.4399L31.5305 10.5601ZM16.1482 45.494C14.3245 42.3849 13.4285 38.9324 13.4285 36H11.4285C11.4285 39.3075 12.4294 43.1071 14.4231 46.506L16.1482 45.494ZM13.4285 36C13.4285 24.3602 21.5107 15.0191 32.692 11.9647L32.165 10.0354C20.2284 13.296 11.4285 23.3452 11.4285 36H13.4285ZM55.5861 42.5462C51.0312 41.1119 46.1409 40.3242 41.0633 40.002L40.9367 41.998C45.8937 42.3125 50.6187 43.0789 54.9854 44.4538L55.5861 42.5462ZM40.9367 40.002C35.8576 40.3242 30.9673 41.1119 26.4139 42.5462L27.0147 44.4538C31.3798 43.0789 36.1048 42.3125 41.0633 41.998L40.9367 40.002ZM27.6017 43.961L41.8874 16.461L40.1126 15.539L25.8269 43.039L27.6017 43.961ZM40.1126 16.461L54.3983 43.961L56.1731 43.039L41.8874 15.539L40.1126 16.461ZM68.5715 36C68.5715 38.9324 67.6755 42.3849 65.8518 45.494L67.5769 46.506C69.5706 43.1071 70.5715 39.3075 70.5715 36H68.5715ZM67.6124 45.5601L50.4695 10.5601L48.6734 11.4399L65.8163 46.4399L67.6124 45.5601ZM49.308 11.9647C60.4893 15.0191 68.5715 24.3602 68.5715 36H70.5715C70.5715 23.3452 61.7716 13.296 49.835 10.0354L49.308 11.9647ZM41 0C18.5212 0 0 16.0274 0 36H2C2 17.3744 19.3666 2 41 2V0ZM0 36C0 55.9726 18.5212 72 41 72V70C19.3666 70 2 54.6256 2 36H0ZM41 72C63.4788 72 82 55.9726 82 36H80C80 54.6256 62.6334 70 41 70V72ZM82 36C82 16.0274 63.4788 0 41 0V2C62.6334 2 80 17.3744 80 36H82Z" fill="#002B5A"/>
</svg>
