<svg width="83" height="71" viewBox="0 0 83 71" fill="none" xmlns="http://www.w3.org/2000/svg">
<path fill-rule="evenodd" clip-rule="evenodd" d="M41.779 1C20.8926 1 3.96082 26.0721 3.96082 57L8.32443 57C8.32443 29.6407 23.3025 7.46153 41.779 7.46153C60.2554 7.46153 75.2335 29.6407 75.2335 57L79.5972 57C79.5972 26.0721 62.6654 1 41.779 1Z" fill="#BEC8D5"/>
<path d="M3.96082 57H2.96082C2.96082 57.2652 3.06617 57.5196 3.25371 57.7071C3.44125 57.8946 3.6956 58 3.96082 58L3.96082 57ZM8.32443 57L8.32443 58C8.87672 58 9.32443 57.5523 9.32443 57H8.32443ZM75.2335 57H74.2335C74.2335 57.5523 74.6812 58 75.2335 58V57ZM79.5972 57V58C79.8624 58 80.1167 57.8946 80.3043 57.7071C80.4918 57.5196 80.5972 57.2652 80.5972 57H79.5972ZM4.96082 57C4.96082 41.7085 9.1483 27.9094 15.8662 17.9617C22.5881 8.00812 31.7682 2 41.779 2V0C30.9034 0 21.1744 6.52791 14.2088 16.8424C7.23922 27.1627 2.96082 41.3635 2.96082 57H4.96082ZM8.32443 56L3.96081 56L3.96082 58L8.32443 58L8.32443 56ZM9.32443 57C9.32443 43.4928 13.0235 31.3091 18.9518 22.5307C24.884 13.7464 32.9731 8.46153 41.779 8.46153V6.46153C32.1084 6.46153 23.4703 12.2662 17.2943 21.4114C11.1144 30.5624 7.32443 43.1478 7.32443 57H9.32443ZM41.779 8.46153C50.5848 8.46153 58.674 13.7464 64.6062 22.5307C70.5345 31.3091 74.2335 43.4928 74.2335 57H76.2335C76.2335 43.1478 72.4435 30.5624 66.2636 21.4114C60.0877 12.2662 51.4496 6.46153 41.779 6.46153V8.46153ZM79.5972 56L75.2335 56V58L79.5972 58V56ZM41.779 2C51.7898 2 60.9699 8.00812 67.6918 17.9617C74.4097 27.9094 78.5972 41.7085 78.5972 57H80.5972C80.5972 41.3635 76.3188 27.1627 69.3492 16.8424C62.3836 6.52791 52.6546 0 41.779 0V2Z" fill="#002B5A"/>
<path d="M42.5961 7.46153C42.5961 6.90925 42.1484 6.46153 41.5961 6.46153C41.0439 6.46153 40.5961 6.90925 40.5961 7.46153H42.5961ZM40.5961 16.0769C40.5961 16.6292 41.0439 17.0769 41.5961 17.0769C42.1484 17.0769 42.5961 16.6292 42.5961 16.0769H40.5961ZM52.9109 10.1005C53.0293 9.561 52.6879 9.02773 52.1485 8.90936C51.609 8.79099 51.0758 9.13234 50.9574 9.6718L52.9109 10.1005ZM49.1595 17.8655C49.0411 18.405 49.3825 18.9382 49.9219 19.0566C50.4614 19.175 50.9946 18.8336 51.113 18.2942L49.1595 17.8655ZM62.158 17.363C62.4013 16.8672 62.1965 16.2681 61.7007 16.0248C61.2049 15.7815 60.6058 15.9862 60.3625 16.482L62.158 17.363ZM56.9426 23.452C56.6994 23.9479 56.9041 24.547 57.3999 24.7903C57.8957 25.0336 58.4949 24.8288 58.7382 24.333L56.9426 23.452ZM69.3939 28.5628C69.7699 28.1583 69.7468 27.5256 69.3423 27.1496C68.9377 26.7736 68.305 26.7967 67.929 27.2012L69.3939 28.5628ZM63.222 32.2652C62.846 32.6697 62.8691 33.3025 63.2736 33.6785C63.6781 34.0545 64.3109 34.0314 64.6869 33.6268L63.222 32.2652ZM73.8468 42.5929C74.3445 42.3535 74.5538 41.7559 74.3144 41.2582C74.075 40.7605 73.4774 40.5512 72.9797 40.7906L73.8468 42.5929ZM67.4463 43.4529C66.9486 43.6924 66.7393 44.29 66.9787 44.7876C67.2182 45.2853 67.8157 45.4946 68.3134 45.2552L67.4463 43.4529ZM10.2126 40.7906C9.71487 40.5512 9.11731 40.7605 8.87787 41.2582C8.63842 41.7559 8.84775 42.3535 9.34543 42.5929L10.2126 40.7906ZM14.8789 45.2552C15.3765 45.4946 15.9741 45.2853 16.2135 44.7876C16.453 44.29 16.2436 43.6924 15.746 43.4529L14.8789 45.2552ZM15.2633 27.2012C14.8873 26.7967 14.2545 26.7736 13.85 27.1496C13.4455 27.5256 13.4224 28.1583 13.7984 28.5628L15.2633 27.2012ZM18.5054 33.6268C18.8814 34.0314 19.5141 34.0545 19.9186 33.6785C20.3232 33.3025 20.3463 32.6697 19.9703 32.2652L18.5054 33.6268ZM22.8298 16.482C22.5866 15.9862 21.9874 15.7815 21.4916 16.0248C20.9958 16.2681 20.791 16.8672 21.0343 17.363L22.8298 16.482ZM24.4542 24.333C24.6974 24.8288 25.2966 25.0336 25.7924 24.7903C26.2882 24.547 26.4929 23.9479 26.2497 23.452L24.4542 24.333ZM32.2349 9.6718C32.1165 9.13234 31.5832 8.79099 31.0438 8.90936C30.5043 9.02773 30.163 9.561 30.2814 10.1005L32.2349 9.6718ZM32.0793 18.2942C32.1976 18.8336 32.7309 19.175 33.2704 19.0566C33.8098 18.9382 34.1512 18.405 34.0328 17.8655L32.0793 18.2942ZM40.5961 7.46153V16.0769H42.5961V7.46153H40.5961ZM42.5961 16.0769V7.46153H40.5961V16.0769H42.5961ZM50.9574 9.6718L49.1595 17.8655L51.113 18.2942L52.9109 10.1005L50.9574 9.6718ZM51.113 18.2942L52.9109 10.1005L50.9574 9.6718L49.1595 17.8655L51.113 18.2942ZM60.3625 16.482L56.9426 23.452L58.7382 24.333L62.158 17.363L60.3625 16.482ZM58.7382 24.333L62.158 17.363L60.3625 16.482L56.9426 23.452L58.7382 24.333ZM67.929 27.2012L63.222 32.2652L64.6869 33.6268L69.3939 28.5628L67.929 27.2012ZM64.6869 33.6268L69.3939 28.5628L67.929 27.2012L63.222 32.2652L64.6869 33.6268ZM72.9797 40.7906L67.4463 43.4529L68.3134 45.2552L73.8468 42.5929L72.9797 40.7906ZM68.3134 45.2552L73.8468 42.5929L72.9797 40.7906L67.4463 43.4529L68.3134 45.2552ZM9.34543 42.5929L14.8789 45.2552L15.746 43.4529L10.2126 40.7906L9.34543 42.5929ZM15.746 43.4529L10.2126 40.7906L9.34543 42.5929L14.8789 45.2552L15.746 43.4529ZM13.7984 28.5628L18.5054 33.6268L19.9703 32.2652L15.2633 27.2012L13.7984 28.5628ZM19.9703 32.2652L15.2633 27.2012L13.7984 28.5628L18.5054 33.6268L19.9703 32.2652ZM21.0343 17.363L24.4542 24.333L26.2497 23.452L22.8298 16.482L21.0343 17.363ZM26.2497 23.452L22.8298 16.482L21.0343 17.363L24.4542 24.333L26.2497 23.452ZM30.2814 10.1005L32.0793 18.2942L34.0328 17.8655L32.2349 9.6718L30.2814 10.1005ZM34.0328 17.8655L32.2349 9.6718L30.2814 10.1005L32.0793 18.2942L34.0328 17.8655Z" fill="#002B5A"/>
<path d="M54.79 57V58C55.3134 58 55.7483 57.5964 55.7872 57.0744L54.79 57ZM28.768 57L27.7708 57.0744C27.8097 57.5964 28.2446 58 28.768 58V57ZM55.7872 57.0744C55.8419 56.3425 55.8699 55.599 55.8699 54.8462H53.8699C53.8699 55.5494 53.8437 56.2432 53.7928 56.9256L55.7872 57.0744ZM55.8699 54.8462C55.8699 49.3207 54.3592 44.2737 51.8644 40.5795C49.3735 36.8911 45.8263 34.4615 41.779 34.4615V36.4615C44.9616 36.4615 47.9598 38.3714 50.2069 41.6988C52.4501 45.0204 53.8699 49.6658 53.8699 54.8462H55.8699ZM41.779 34.4615C37.7317 34.4615 34.1844 36.8911 31.6936 40.5795C29.1988 44.2737 27.6881 49.3207 27.6881 54.8462H29.6881C29.6881 49.6658 31.1079 45.0204 33.351 41.6988C35.5982 38.3714 38.5964 36.4615 41.779 36.4615V34.4615ZM27.6881 54.8462C27.6881 55.599 27.7161 56.3425 27.7708 57.0744L29.7652 56.9256C29.7143 56.2432 29.6881 55.5494 29.6881 54.8462H27.6881ZM28.768 58H54.79V56H28.768V58Z" fill="#002B5A"/>
<path d="M1.77899 57H81.779" stroke="#002B5A" stroke-width="2" stroke-linecap="round" stroke-linejoin="round"/>
<path d="M12.6881 63.4615H70.8699" stroke="#002B5A" stroke-width="2" stroke-linecap="round" stroke-linejoin="round"/>
<path d="M23.5972 69.9231H59.9608" stroke="#002B5A" stroke-width="2" stroke-linecap="round" stroke-linejoin="round"/>
<path fill-rule="evenodd" clip-rule="evenodd" d="M56.0202 32.1536L44.3534 57L39.1858 56.8354L56.0202 32.1536Z" fill="#BEC8D5" stroke="#002B5A" stroke-width="2" stroke-linecap="round" stroke-linejoin="round"/>
</svg>
