<svg width="82" height="72" viewBox="0 0 82 72" fill="none" xmlns="http://www.w3.org/2000/svg">
<path fill-rule="evenodd" clip-rule="evenodd" d="M25.3645 48.1823H14.4435V54.08H30.4052C32.2455 55.6975 34.2811 57.0272 36.4633 58.0119H1V46.6804C1 45.1911 1.71924 43.8297 2.85785 43.1637L7.72176 40.3186H21.7594C22.6196 43.1659 23.843 45.8125 25.3645 48.1823ZM6.88153 54.08C8.27365 54.08 9.40219 52.7598 9.40219 51.1312C9.40219 49.5025 8.27365 48.1823 6.88153 48.1823C5.48941 48.1823 4.36087 49.5025 4.36087 51.1312C4.36087 52.7598 5.48941 54.08 6.88153 54.08Z" fill="#BEC8D5"/>
<path d="M14.4435 48.1823V47.1823C13.8912 47.1823 13.4435 47.63 13.4435 48.1823H14.4435ZM14.4435 54.08H13.4435C13.4435 54.6323 13.8912 55.08 14.4435 55.08V54.08ZM30.4052 54.08L31.0654 53.3289C30.8829 53.1685 30.6482 53.08 30.4052 53.08V54.08ZM36.4633 58.0119V59.0119C36.9345 59.0119 37.3418 58.6829 37.4409 58.2223C37.5401 57.7616 37.3041 57.2942 36.8746 57.1004L36.4633 58.0119ZM1 58.0119H0C0 58.5642 0.447715 59.0119 1 59.0119L1 58.0119ZM2.85785 43.1637L3.36276 44.0268V44.0268L2.85785 43.1637ZM7.72176 40.3186V39.3186C7.54429 39.3186 7.37003 39.3658 7.21685 39.4554L7.72176 40.3186ZM21.7594 40.3186L22.7166 40.0293C22.5891 39.6073 22.2002 39.3186 21.7594 39.3186V40.3186ZM25.3645 47.1823H14.4435V49.1823H25.3645V47.1823ZM13.4435 48.1823V54.08H15.4435V48.1823H13.4435ZM14.4435 55.08H30.4052V53.08H14.4435V55.08ZM29.745 54.8311C31.6558 56.5106 33.7745 57.8957 36.052 58.9234L36.8746 57.1004C34.7877 56.1587 32.8352 54.8845 31.0654 53.3289L29.745 54.8311ZM36.4633 57.0119H1V59.0119H36.4633V57.0119ZM2 58.0119V46.6804H0V58.0119H2ZM2 46.6804C2 45.4914 2.57547 44.4874 3.36276 44.0268L2.35294 42.3005C0.863006 43.172 0 44.8909 0 46.6804H2ZM3.36276 44.0268L8.22667 41.1817L7.21685 39.4554L2.35294 42.3005L3.36276 44.0268ZM7.72176 41.3186H21.7594V39.3186H7.72176V41.3186ZM20.8021 40.6078C21.6886 43.5419 22.9505 46.2733 24.523 48.7225L26.206 47.642C24.7356 45.3518 23.5506 42.7899 22.7166 40.0293L20.8021 40.6078ZM6.88153 55.08C8.96737 55.08 10.4022 53.1591 10.4022 51.1312H8.40219C8.40219 52.3604 7.57994 53.08 6.88153 53.08V55.08ZM10.4022 51.1312C10.4022 49.1032 8.96737 47.1823 6.88153 47.1823V49.1823C7.57994 49.1823 8.40219 49.9019 8.40219 51.1312H10.4022ZM6.88153 47.1823C4.7957 47.1823 3.36087 49.1032 3.36087 51.1312H5.36087C5.36087 49.9019 6.18313 49.1823 6.88153 49.1823V47.1823ZM3.36087 51.1312C3.36087 53.1591 4.7957 55.08 6.88153 55.08V53.08C6.18313 53.08 5.36087 52.3604 5.36087 51.1312H3.36087Z" fill="#002B5A"/>
<path fill-rule="evenodd" clip-rule="evenodd" d="M20.3802 28.523C20.3436 29.1728 20.325 29.8283 20.325 30.4889C20.325 33.9355 20.8305 37.244 21.7593 40.3186H7.72174L9.16815 30.1657C9.3032 29.2178 10.0043 28.523 10.8257 28.523H20.3802V28.523Z" stroke="#002B5A" stroke-width="2" stroke-linecap="round" stroke-linejoin="round"/>
<path d="M1 58.0119H48.0523V61.9097C48.0523 63.0143 47.1569 63.9097 46.0523 63.9097H3C1.89543 63.9097 1 63.0143 1 61.9097V58.0119Z" fill="#BEC8D5" stroke="#002B5A" stroke-width="2" stroke-linecap="round" stroke-linejoin="round"/>
<rect x="3.52069" y="63.9097" width="6.72176" height="5.89778" fill="#BEC8D5" stroke="#002B5A" stroke-width="2" stroke-linecap="round" stroke-linejoin="round"/>
<rect x="38.8099" y="63.9097" width="6.72176" height="5.89778" fill="#BEC8D5" stroke="#002B5A" stroke-width="2" stroke-linecap="round" stroke-linejoin="round"/>
<path fill-rule="evenodd" clip-rule="evenodd" d="M39.6501 54.0867V48.1823H30.9543C28.1508 45.0203 26.0969 40.9549 25.135 36.3867H49.7327L57.0286 40.6544C58.7365 41.6534 59.8154 43.6956 59.8154 45.9295V48.5071C58.3207 50.1295 56.6238 51.5005 54.7739 52.5627C54.7542 50.1395 53.069 48.1823 50.9931 48.1823C48.9049 48.1823 47.2121 50.1627 47.2121 52.6056C47.2121 53.4561 47.4172 54.2505 47.7728 54.9248C47.0364 55.0161 46.2887 55.063 45.5316 55.063C43.49 55.063 41.5164 54.7222 39.6501 54.0867Z" fill="#BEC8D5" stroke="#002B5A" stroke-width="2" stroke-linecap="round" stroke-linejoin="round"/>
<path fill-rule="evenodd" clip-rule="evenodd" d="M45.0768 18.6933C46.309 18.6933 47.3606 19.7355 47.5632 21.1574L49.7328 36.3867H25.135C24.7372 34.4973 24.5262 32.5219 24.5262 30.4889C24.5262 26.2143 25.4591 22.1946 27.0997 18.6933L45.0768 18.6933Z" stroke="#002B5A" stroke-width="2" stroke-linecap="round" stroke-linejoin="round"/>
<path fill-rule="evenodd" clip-rule="evenodd" d="M65.9325 47.8122L80.0157 64.2879C81.3282 65.8234 81.3282 68.3129 80.0157 69.8484C78.7031 71.3839 76.5751 71.3839 75.2626 69.8484L61.292 53.5042C56.9757 57.5548 51.4955 59.9778 45.5317 59.9778C31.6104 59.9778 20.3251 46.7752 20.3251 30.4889C20.3251 14.2026 31.6104 1 45.5317 1C59.4529 1 70.7383 14.2026 70.7383 30.4889C70.7383 36.9623 68.9553 42.9486 65.9325 47.8122ZM45.5317 55.063C57.1327 55.063 66.5372 44.0608 66.5372 30.4889C66.5372 16.917 57.1327 5.91482 45.5317 5.91482C33.9307 5.91482 24.5262 16.917 24.5262 30.4889C24.5262 44.0608 33.9307 55.063 45.5317 55.063Z" fill="#BEC8D5"/>
<path d="M80.0157 64.2879L80.7758 63.6381L80.0157 64.2879ZM75.2626 69.8484L74.5025 70.4981L75.2626 69.8484ZM61.292 53.5042L62.0521 52.8545C61.8746 52.6468 61.6197 52.5208 61.3469 52.5058C61.074 52.4908 60.8069 52.5881 60.6077 52.775L61.292 53.5042ZM65.1724 48.462L79.2555 64.9377L80.7758 63.6381L66.6927 47.1625L65.1724 48.462ZM79.2555 64.9377C80.2482 66.099 80.2482 68.0373 79.2555 69.1986L80.7758 70.4981C82.4081 68.5885 82.4081 65.5478 80.7758 63.6381L79.2555 64.9377ZM79.2555 69.1986C78.3422 70.2671 76.9361 70.2671 76.0228 69.1986L74.5025 70.4981C76.2142 72.5006 79.0641 72.5006 80.7758 70.4981L79.2555 69.1986ZM76.0228 69.1986L62.0521 52.8545L60.5318 54.154L74.5025 70.4981L76.0228 69.1986ZM60.6077 52.775C56.4555 56.6715 51.2136 58.9778 45.5317 58.9778V60.9778C51.7775 60.9778 57.4958 58.438 61.9763 54.2335L60.6077 52.775ZM45.5317 58.9778C32.3042 58.9778 21.3251 46.3758 21.3251 30.4889H19.3251C19.3251 47.1745 30.9167 60.9778 45.5317 60.9778V58.9778ZM21.3251 30.4889C21.3251 14.602 32.3042 2 45.5317 2V0C30.9167 0 19.3251 13.8033 19.3251 30.4889H21.3251ZM45.5317 2C58.7592 2 69.7383 14.602 69.7383 30.4889H71.7383C71.7383 13.8033 60.1466 0 45.5317 0V2ZM69.7383 30.4889C69.7383 36.7794 68.0056 42.5822 65.0832 47.2844L66.7819 48.3401C69.905 43.315 71.7383 37.1453 71.7383 30.4889H69.7383ZM45.5317 56.063C57.8264 56.063 67.5372 44.4602 67.5372 30.4889H65.5372C65.5372 43.6615 56.439 54.063 45.5317 54.063V56.063ZM67.5372 30.4889C67.5372 16.5177 57.8264 4.91482 45.5317 4.91482V6.91482C56.439 6.91482 65.5372 17.3164 65.5372 30.4889H67.5372ZM45.5317 4.91482C33.2369 4.91482 23.5262 16.5177 23.5262 30.4889H25.5262C25.5262 17.3164 34.6244 6.91482 45.5317 6.91482V4.91482ZM23.5262 30.4889C23.5262 44.4602 33.2369 56.063 45.5317 56.063V54.063C34.6244 54.063 25.5262 43.6615 25.5262 30.4889H23.5262Z" fill="#002B5A"/>
<path d="M61.4959 30.4889C61.4959 20.1743 54.3484 11.8126 45.5317 11.8126" stroke="#002B5A" stroke-width="2" stroke-linecap="round" stroke-linejoin="round"/>
</svg>
