<svg width="82" height="72" viewBox="0 0 82 72" fill="none" xmlns="http://www.w3.org/2000/svg">
<path fill-rule="evenodd" clip-rule="evenodd" d="M48.1232 48.7265C48.3126 48.9769 48.4076 49.2277 48.4076 49.4781C48.4076 49.7792 48.3126 50.017 48.123 50.1919C47.4998 50.9435 46.3822 52.0661 44.7715 53.5564C43.1603 55.0486 42.0968 55.7939 41.5822 55.7939C41.2841 55.7939 40.9998 55.707 40.729 55.5312L36.0574 52.1478C35.0551 52.6233 34.0126 53.0131 32.9296 53.3127C32.6314 56.0199 32.3202 57.9621 31.9952 59.1405C31.8056 59.7422 31.3996 60.0427 30.7764 60.0427H23.221C22.923 60.0427 22.6522 59.949 22.4085 59.761C22.165 59.5735 22.0293 59.3536 22.0025 59.1031L21.0681 53.3506C20.147 53.0999 19.1313 52.7119 18.0214 52.1856L13.2279 55.5312C13.0385 55.707 12.7677 55.7939 12.4157 55.7939C12.1174 55.7939 11.8334 55.6943 11.5626 55.4943C7.66281 52.1603 5.71265 50.1558 5.71265 49.478C5.71265 49.2536 5.80755 49.0147 5.99707 48.7641C6.2677 48.4136 6.82262 47.7494 7.66281 46.7713C8.50244 45.7944 9.1386 45.0295 9.572 44.4776C8.94922 43.3749 8.47484 42.3468 8.14986 41.3948L1.97523 40.4924C1.70389 40.4676 1.47395 40.3486 1.28414 40.1351C1.09476 39.9224 1 39.6782 1 39.4024V32.4469C1 32.1964 1.09476 31.9524 1.28414 31.7138C1.47395 31.4761 1.69037 31.3447 1.93439 31.3196L8.23125 30.4179C8.52891 29.5407 8.96202 28.5887 9.5306 27.5605C8.60958 26.358 7.39105 24.9168 5.87471 23.2371C5.68476 22.9613 5.59056 22.7107 5.59056 22.4854C5.59056 22.1846 5.6849 21.934 5.87471 21.7332C6.47003 20.9811 7.581 19.8658 9.20605 18.3872C10.8308 16.9081 11.9004 16.1688 12.4156 16.1688C12.7137 16.1688 12.998 16.256 13.2687 16.4318L17.9403 19.8152C18.861 19.3641 19.9037 18.9629 21.068 18.6121C21.3659 15.9057 21.6771 13.9754 22.0024 12.8222C22.1919 12.2208 22.5981 11.92 23.2209 11.92H30.7763C31.0745 11.92 31.3453 12.0142 31.5892 12.2021C31.8329 12.3899 31.9685 12.6095 31.9951 12.8601L32.9295 18.6121C33.8504 18.8635 34.866 19.2519 35.976 19.7781L40.7697 16.4319C40.9874 16.2558 41.2582 16.169 41.5825 16.169C41.8814 16.169 42.1658 16.2692 42.4364 16.4693C46.3352 19.8031 48.2854 21.8083 48.2854 22.4851C48.2854 22.7104 48.1909 22.9488 48.001 23.1994C47.6768 23.6005 47.1071 24.277 46.2948 25.2296C45.4822 26.1815 44.8721 26.9337 44.4664 27.4855C45.0892 28.688 45.5492 29.7162 45.8477 30.5686L52.0229 31.4334C52.2937 31.4828 52.5241 31.6149 52.7135 31.8275C52.9028 32.0402 52.9968 32.2849 52.9968 32.5602V39.5161C52.9968 39.7667 52.9028 40.0106 52.7135 40.2498C52.5241 40.4873 52.3074 40.6185 52.0629 40.644L45.7661 41.5463C45.469 42.4228 45.0356 43.3754 44.4669 44.403C45.388 45.6053 46.6064 47.0464 48.1232 48.7265ZM26.999 45.6061C29.8695 45.6061 32.3207 44.6661 34.3514 42.7869C36.3829 40.9069 37.3981 38.6382 37.3981 35.9814C37.3981 33.3248 36.3828 31.0563 34.3514 29.1766C32.3207 27.2967 29.8695 26.3571 26.999 26.3571C24.128 26.3571 21.6767 27.2968 19.646 29.1766C17.615 31.0563 16.5994 33.3248 16.5994 35.9814C16.5994 38.6382 17.615 40.9069 19.646 42.7869C21.6767 44.666 24.1278 45.6061 26.999 45.6061Z" fill="#BEC8D5"/>
<path d="M48.1232 48.7265L48.9208 48.1233C48.9033 48.1002 48.8849 48.0779 48.8654 48.0564L48.1232 48.7265ZM48.123 50.1919L47.4449 49.4569C47.4122 49.4871 47.3816 49.5194 47.3532 49.5536L48.123 50.1919ZM44.7715 53.5564L44.0924 52.8224L44.092 52.8227L44.7715 53.5564ZM40.729 55.5312L40.1425 56.3411C40.1562 56.351 40.1702 56.3607 40.1845 56.3699L40.729 55.5312ZM36.0574 52.1478L36.6439 51.3379C36.348 51.1236 35.9588 51.0877 35.6287 51.2443L36.0574 52.1478ZM32.9296 53.3127L32.663 52.3489C32.2686 52.458 31.9804 52.7964 31.9356 53.2032L32.9296 53.3127ZM31.9952 59.1405L32.949 59.4412C32.9526 59.4297 32.956 59.4181 32.9593 59.4064L31.9952 59.1405ZM22.4085 59.761L23.019 58.9691L23.0187 58.9688L22.4085 59.761ZM22.0025 59.1031L22.9969 58.9969C22.9949 58.9788 22.9925 58.9608 22.9896 58.9428L22.0025 59.1031ZM21.0681 53.3506L22.0552 53.1903C21.9923 52.8033 21.7091 52.4887 21.3308 52.3857L21.0681 53.3506ZM18.0214 52.1856L18.4498 51.282C18.1254 51.1282 17.7434 51.1601 17.449 51.3656L18.0214 52.1856ZM13.2279 55.5312L12.6556 54.7112C12.6176 54.7377 12.5815 54.7668 12.5476 54.7983L13.2279 55.5312ZM11.5626 55.4943L10.9128 56.2544C10.9308 56.2698 10.9493 56.2845 10.9684 56.2986L11.5626 55.4943ZM5.99707 48.7641L5.20548 48.153L5.19949 48.1609L5.99707 48.7641ZM7.66281 46.7713L6.90441 46.1196L6.90428 46.1197L7.66281 46.7713ZM9.572 44.4776L10.3585 45.0953C10.6087 44.7767 10.6419 44.3386 10.4427 43.9859L9.572 44.4776ZM8.14986 41.3948L9.09624 41.0717C8.9751 40.7168 8.66554 40.4595 8.29445 40.4053L8.14986 41.3948ZM1.97523 40.4924L2.11982 39.503C2.10213 39.5004 2.08437 39.4983 2.06656 39.4966L1.97523 40.4924ZM1.28414 40.1351L2.03165 39.4708L2.03096 39.47L1.28414 40.1351ZM1.28414 31.7138L0.50272 31.0898L0.500867 31.0921L1.28414 31.7138ZM1.93439 31.3196L2.03638 32.3144C2.04967 32.3131 2.06293 32.3114 2.07616 32.3095L1.93439 31.3196ZM8.23125 30.4179L8.37301 31.4078C8.74591 31.3544 9.05715 31.0959 9.17821 30.7392L8.23125 30.4179ZM9.5306 27.5605L10.4057 28.0445C10.598 27.6967 10.5662 27.268 10.3245 26.9525L9.5306 27.5605ZM5.87471 23.2371L5.05119 23.8043C5.07599 23.8403 5.10312 23.8747 5.13241 23.9071L5.87471 23.2371ZM5.87471 21.7332L6.60146 22.4201C6.62152 22.3989 6.64065 22.3768 6.65878 22.3539L5.87471 21.7332ZM9.20605 18.3872L9.87903 19.1269L9.87922 19.1267L9.20605 18.3872ZM13.2687 16.4318L13.8553 15.6219C13.8415 15.612 13.8275 15.6023 13.8133 15.5931L13.2687 16.4318ZM17.9403 19.8152L17.3537 20.6251C17.6532 20.8421 18.0481 20.876 18.3803 20.7132L17.9403 19.8152ZM21.068 18.6121L21.3565 19.5696C21.7404 19.4539 22.0181 19.1201 22.062 18.7216L21.068 18.6121ZM22.0024 12.8222L21.0486 12.5216C21.0456 12.5313 21.0427 12.541 21.0399 12.5507L22.0024 12.8222ZM31.5892 12.2021L30.9788 12.9942L30.9788 12.9942L31.5892 12.2021ZM31.9951 12.8601L31.0007 12.9657C31.0026 12.984 31.0051 13.0023 31.008 13.0205L31.9951 12.8601ZM32.9295 18.6121L31.9424 18.7725C32.0052 19.1592 32.2881 19.4736 32.6661 19.5768L32.9295 18.6121ZM35.976 19.7781L35.5476 20.6817C35.872 20.8355 36.2539 20.8036 36.5483 20.5981L35.976 19.7781ZM40.7697 16.4319L41.3421 17.2519C41.3615 17.2384 41.3804 17.2242 41.3988 17.2093L40.7697 16.4319ZM42.4364 16.4693L43.0863 15.7093C43.0684 15.694 43.05 15.6794 43.0311 15.6654L42.4364 16.4693ZM48.001 23.1994L48.7788 23.8279C48.7853 23.8199 48.7916 23.8117 48.7979 23.8035L48.001 23.1994ZM46.2948 25.2296L47.0554 25.8788L47.0557 25.8784L46.2948 25.2296ZM44.4664 27.4855L43.6608 26.8931C43.4354 27.1997 43.4035 27.6075 43.5785 27.9454L44.4664 27.4855ZM45.8477 30.5686L44.9039 30.8992C45.0277 31.2524 45.3383 31.5071 45.7091 31.559L45.8477 30.5686ZM52.0229 31.4334L52.2024 30.4496C52.1888 30.4472 52.1753 30.445 52.1616 30.4431L52.0229 31.4334ZM52.7135 31.8275L53.4603 31.1625L53.4603 31.1625L52.7135 31.8275ZM52.7135 40.2498L53.4954 40.8731L53.4974 40.8706L52.7135 40.2498ZM52.0629 40.644L51.959 39.6494C51.9463 39.6508 51.9337 39.6523 51.9211 39.6541L52.0629 40.644ZM45.7661 41.5463L45.6242 40.5564C45.2512 40.6099 44.94 40.8685 44.819 41.2253L45.7661 41.5463ZM44.4669 44.403L43.5919 43.9187C43.3994 44.2666 43.4312 44.6955 43.6731 45.0112L44.4669 44.403ZM34.3514 42.7869L35.0305 43.5209L35.0306 43.5209L34.3514 42.7869ZM34.3514 29.1766L33.672 29.9104L33.6722 29.9106L34.3514 29.1766ZM19.646 29.1766L20.3252 29.9105L20.3253 29.9104L19.646 29.1766ZM19.646 42.7869L18.9667 43.5208L18.9668 43.5209L19.646 42.7869ZM49.4076 49.4781C49.4076 48.9593 49.2073 48.5022 48.9208 48.1233L47.3255 49.3296C47.3724 49.3916 47.3927 49.4341 47.4012 49.4564C47.4089 49.4767 47.4076 49.4823 47.4076 49.4781H49.4076ZM48.8012 50.9268C49.23 50.5311 49.4076 50.0082 49.4076 49.4781H47.4076C47.4076 49.5234 47.4006 49.5293 47.4076 49.5118C47.411 49.5033 47.4164 49.4926 47.4241 49.4814C47.4318 49.4702 47.4394 49.462 47.4449 49.4569L48.8012 50.9268ZM45.4506 54.2904C47.0642 52.7975 48.2242 51.6366 48.8929 50.8301L47.3532 49.5536C46.7755 50.2504 45.7001 51.3348 44.0924 52.8224L45.4506 54.2904ZM41.5822 56.7939C41.9273 56.7939 42.2479 56.6765 42.4982 56.5583C42.7651 56.4322 43.0476 56.2583 43.3398 56.0534C43.9249 55.643 44.6314 55.0491 45.451 54.2901L44.092 52.8227C43.3004 53.5559 42.6695 54.0807 42.1914 54.416C41.952 54.5839 41.7715 54.6896 41.6439 54.75C41.4996 54.8181 41.4944 54.7939 41.5822 54.7939V56.7939ZM40.1845 56.3699C40.6052 56.643 41.0767 56.7939 41.5822 56.7939V54.7939C41.4914 54.7939 41.3944 54.7709 41.2736 54.6925L40.1845 56.3699ZM35.4708 52.9577L40.1425 56.3411L41.3156 54.7213L36.6439 51.3379L35.4708 52.9577ZM33.1963 54.2765C34.3354 53.9614 35.4321 53.5513 36.486 53.0513L35.6287 51.2443C34.6781 51.6953 33.6898 52.0648 32.663 52.3489L33.1963 54.2765ZM32.9593 59.4064C33.3071 58.1449 33.6249 56.134 33.9236 53.4222L31.9356 53.2032C31.6379 55.9057 31.3333 57.7793 31.0312 58.8747L32.9593 59.4064ZM30.7764 61.0427C31.2513 61.0427 31.7312 60.9261 32.1434 60.621C32.5544 60.3168 32.8066 59.8927 32.949 59.4412L31.0415 58.8399C31.0175 58.9161 30.9935 58.9607 30.9779 58.9843C30.9634 59.0064 30.9546 59.0127 30.9535 59.0135C30.9524 59.0143 30.9451 59.0199 30.9228 59.0265C30.8986 59.0335 30.8524 59.0427 30.7764 59.0427V61.0427ZM23.221 61.0427H30.7764V59.0427H23.221V61.0427ZM21.7979 60.553C22.2107 60.8713 22.6948 61.0427 23.221 61.0427V59.0427C23.1511 59.0427 23.0936 59.0266 23.019 58.9691L21.7979 60.553ZM21.0082 59.2094C21.0701 59.7895 21.3896 60.2385 21.7982 60.5533L23.0187 58.9688C22.9749 58.9351 22.9686 58.9199 22.9752 58.9306C22.9786 58.936 22.9836 58.9456 22.9882 58.9589C22.9929 58.9723 22.9956 58.9855 22.9969 58.9969L21.0082 59.2094ZM20.0811 53.5109L21.0154 59.2635L22.9896 58.9428L22.0552 53.1903L20.0811 53.5109ZM17.5929 53.0891C18.7423 53.6342 19.8142 54.0457 20.8055 54.3155L21.3308 52.3857C20.4798 52.1541 19.5204 51.7897 18.4498 51.282L17.5929 53.0891ZM13.8002 56.3512L18.5937 53.0056L17.449 51.3656L12.6556 54.7112L13.8002 56.3512ZM12.4157 56.7939C12.9246 56.7939 13.4741 56.667 13.9082 56.2641L12.5476 54.7983C12.5706 54.7769 12.5868 54.7732 12.5756 54.7768C12.5602 54.7818 12.5117 54.7939 12.4157 54.7939V56.7939ZM10.9684 56.2986C11.3886 56.6091 11.877 56.7939 12.4157 56.7939V54.7939C12.3577 54.7939 12.2781 54.7796 12.1568 54.69L10.9684 56.2986ZM4.71265 49.478C4.71265 49.7809 4.81475 50.0453 4.90357 50.2292C4.99954 50.428 5.12745 50.6278 5.26943 50.8231C5.55375 51.2143 5.95681 51.6716 6.4583 52.1872C7.46547 53.2229 8.95538 54.581 10.9128 56.2544L12.2124 54.7342C10.27 53.0736 8.83495 51.7624 7.8921 50.7929C7.41857 50.306 7.09036 49.9267 6.88716 49.6471C6.78537 49.5071 6.73046 49.4132 6.70455 49.3595C6.67148 49.291 6.71265 49.3446 6.71265 49.478H4.71265ZM5.19949 48.1609C4.92923 48.5183 4.71265 48.9647 4.71265 49.478H6.71265C6.71265 49.5091 6.70572 49.5187 6.71286 49.5008C6.72075 49.481 6.74254 49.4363 6.79466 49.3673L5.19949 48.1609ZM6.90428 46.1197C6.06629 47.0952 5.49459 47.7786 5.20552 48.153L6.78863 49.3752C7.04082 49.0486 7.57894 48.4036 8.42135 47.423L6.90428 46.1197ZM8.78553 43.86C8.36565 44.3947 7.74063 45.1465 6.90441 46.1196L8.42122 47.4231C9.26425 46.4422 9.91155 45.6644 10.3585 45.0953L8.78553 43.86ZM7.20347 41.7178C7.55277 42.7411 8.05558 43.8261 8.70127 44.9694L10.4427 43.9859C9.84286 42.9237 9.3969 41.9525 9.09624 41.0717L7.20347 41.7178ZM1.83063 41.4819L8.00526 42.3842L8.29445 40.4053L2.11982 39.503L1.83063 41.4819ZM0.536644 40.7993C0.886085 41.1925 1.34641 41.439 1.88389 41.4883L2.06656 39.4966C2.06234 39.4962 2.05946 39.4958 2.05775 39.4955C2.05605 39.4952 2.05528 39.4949 2.05528 39.4949C2.05528 39.4949 2.05572 39.4951 2.05647 39.4954C2.05722 39.4957 2.05792 39.496 2.05847 39.4963C2.05985 39.497 2.05874 39.4966 2.05494 39.4936C2.051 39.4905 2.04303 39.4836 2.03165 39.4708L0.536644 40.7993ZM0 39.4024C0 39.9323 0.19085 40.411 0.537331 40.8001L2.03096 39.47C2.00873 39.4451 2.00388 39.4321 2.00337 39.4308C2.00279 39.4293 2.00217 39.4274 2.00157 39.4241C2.00096 39.4207 2 39.4138 2 39.4024H0ZM0 32.4469V39.4024H2V32.4469H0ZM0.500867 31.0921C0.202916 31.4675 0 31.9244 0 32.4469H2C2 32.4511 1.99862 32.4498 2.00341 32.4374C2.00901 32.423 2.02516 32.3887 2.06742 32.3354L0.500867 31.0921ZM1.8324 30.3249C1.25934 30.3836 0.816721 30.6966 0.502724 31.0898L2.06557 32.3378C2.10157 32.2927 2.11774 32.2858 2.10746 32.292C2.10216 32.2952 2.09221 32.3004 2.07813 32.3052C2.06395 32.31 2.04953 32.3131 2.03638 32.3144L1.8324 30.3249ZM8.08948 29.428L1.79263 30.3297L2.07616 32.3095L8.37301 31.4078L8.08948 29.428ZM8.65549 27.0766C8.06553 28.1435 7.60535 29.1504 7.28428 30.0965L9.17821 30.7392C9.45246 29.931 9.85852 29.034 10.4057 28.0445L8.65549 27.0766ZM5.13241 23.9071C6.63855 25.5756 7.83787 26.995 8.73669 28.1686L10.3245 26.9525C9.3813 25.721 8.14355 24.2581 6.617 22.567L5.13241 23.9071ZM4.59056 22.4854C4.59056 22.9882 4.79776 23.4364 5.05119 23.8043L6.69823 22.6698C6.63849 22.583 6.60977 22.5231 6.59697 22.4891C6.58464 22.4565 6.59056 22.4575 6.59056 22.4854H4.59056ZM5.14796 21.0463C4.7656 21.4508 4.59056 21.9551 4.59056 22.4854H6.59056C6.59056 22.4625 6.59235 22.4472 6.59391 22.4381C6.59543 22.4292 6.5969 22.4253 6.59704 22.4249C6.59714 22.4247 6.59685 22.4254 6.59644 22.426C6.59608 22.4266 6.59718 22.4246 6.60146 22.4201L5.14796 21.0463ZM8.53306 17.6476C6.90592 19.128 5.74114 20.2908 5.09064 21.1125L6.65878 22.3539C7.19892 21.6715 8.25608 20.6035 9.87903 19.1269L8.53306 17.6476ZM12.4156 15.1688C12.0726 15.1688 11.753 15.2844 11.5025 15.4012C11.2354 15.5258 10.952 15.6978 10.6583 15.9007C10.0703 16.3072 9.35908 16.8956 8.53287 17.6477L9.87922 19.1267C10.6778 18.3997 11.3137 17.879 11.7955 17.546C12.0367 17.3793 12.2188 17.274 12.348 17.2137C12.4937 17.1457 12.5009 17.1688 12.4156 17.1688V15.1688ZM13.8133 15.5931C13.3931 15.3203 12.9216 15.1688 12.4156 15.1688V17.1688C12.5058 17.1688 12.6028 17.1917 12.7242 17.2705L13.8133 15.5931ZM18.5268 19.0053L13.8553 15.6219L12.6822 17.2417L17.3537 20.6251L18.5268 19.0053ZM20.7795 17.6546C19.5724 18.0184 18.4777 18.4382 17.5002 18.9172L18.3803 20.7132C19.2442 20.2899 20.235 19.9075 21.3565 19.5696L20.7795 17.6546ZM21.0399 12.5507C20.6902 13.7904 20.3723 15.7929 20.074 18.5027L22.062 18.7216C22.3595 16.0186 22.664 14.1603 22.9648 13.0937L21.0399 12.5507ZM23.2209 10.92C22.7459 10.92 22.2661 11.0369 21.8541 11.3419C21.4433 11.6461 21.1909 12.07 21.0486 12.5216L22.9561 13.1228C22.9801 13.0467 23.004 13.0021 23.0196 12.9785C23.0342 12.9565 23.043 12.9502 23.0442 12.9493C23.0453 12.9484 23.0526 12.9428 23.075 12.9362C23.0991 12.9292 23.1452 12.92 23.2209 12.92V10.92ZM30.7763 10.92H23.2209V12.92H30.7763V10.92ZM32.1995 11.41C31.7874 11.0924 31.3036 10.92 30.7763 10.92V12.92C30.8454 12.92 30.9032 12.9359 30.9788 12.9942L32.1995 11.41ZM32.9895 12.7545C32.9278 12.1736 32.6081 11.7247 32.1995 11.4099L30.9788 12.9942C31.0231 13.0283 31.0292 13.0435 31.0225 13.0326C31.0191 13.0271 31.014 13.0174 31.0093 13.0039C31.0047 12.9904 31.0019 12.9772 31.0007 12.9657L32.9895 12.7545ZM33.9165 18.4518L32.9822 12.6998L31.008 13.0205L31.9424 18.7725L33.9165 18.4518ZM36.4043 18.8745C35.2552 18.3297 34.1836 17.9179 33.1928 17.6474L32.6661 19.5768C33.5172 19.8092 34.4768 20.174 35.5476 20.6817L36.4043 18.8745ZM40.1973 15.612L35.4036 18.9581L36.5483 20.5981L41.3421 17.2519L40.1973 15.612ZM41.5825 15.169C41.0703 15.169 40.5658 15.3105 40.1406 15.6546L41.3988 17.2093C41.409 17.201 41.4461 17.169 41.5825 17.169V15.169ZM43.0311 15.6654C42.6115 15.355 42.1226 15.169 41.5825 15.169V17.169C41.6402 17.169 41.7201 17.1833 41.8418 17.2733L43.0311 15.6654ZM49.2854 22.4851C49.2854 22.1822 49.1831 21.9177 49.0944 21.734C48.9984 21.5354 48.8705 21.3356 48.7286 21.1404C48.4443 20.7494 48.0413 20.2921 47.5399 19.7764C46.5329 18.7408 45.0432 17.3826 43.0863 15.7093L41.7866 17.2294C43.7284 18.8898 45.1633 20.2011 46.106 21.1707C46.5795 21.6576 46.9077 22.0369 47.1109 22.3165C47.2127 22.4565 47.2677 22.5505 47.2936 22.6041C47.3267 22.6726 47.2854 22.6189 47.2854 22.4851H49.2854ZM48.7979 23.8035C49.0698 23.4448 49.2854 22.9987 49.2854 22.4851H47.2854C47.2854 22.4222 47.312 22.4528 47.204 22.5953L48.7979 23.8035ZM47.0557 25.8784C47.867 24.927 48.4451 24.2408 48.7788 23.8279L47.2232 22.5709C46.9086 22.9602 46.3472 23.6269 45.5339 24.5807L47.0557 25.8784ZM45.2721 28.0778C45.6561 27.5555 46.2476 26.8251 47.0554 25.8788L45.5342 24.5803C44.7168 25.538 44.0881 26.3119 43.6608 26.8931L45.2721 28.0778ZM46.7915 30.2381C46.472 29.3257 45.9896 28.252 45.3544 27.0256L43.5785 27.9454C44.1889 29.124 44.6264 30.1068 44.9039 30.8992L46.7915 30.2381ZM52.1616 30.4431L45.9864 29.5783L45.7091 31.559L51.8843 32.4237L52.1616 30.4431ZM53.4603 31.1625C53.1295 30.7911 52.7026 30.5409 52.2024 30.4496L51.8435 32.4172C51.8849 32.4247 51.9186 32.4387 51.9667 32.4926L53.4603 31.1625ZM53.9968 32.5602C53.9968 32.0332 53.8084 31.5534 53.4603 31.1625L51.9666 32.4926C51.988 32.5166 51.9927 32.5291 51.9932 32.5304C51.9936 32.5314 51.9968 32.5387 51.9968 32.5602H53.9968ZM53.9968 39.5161V32.5602H51.9968V39.5161H53.9968ZM53.4974 40.8706C53.7961 40.4935 53.9968 40.037 53.9968 39.5161H51.9968C51.9968 39.5162 51.9968 39.516 51.9968 39.5158C51.9968 39.5156 51.9968 39.5156 51.9967 39.516C51.9966 39.5165 51.9959 39.5201 51.9932 39.5272C51.9876 39.5416 51.9717 39.5757 51.9295 39.6289L53.4974 40.8706ZM52.1669 41.6386C52.7376 41.579 53.1804 41.2682 53.4954 40.8731L51.9315 39.6264C51.8962 39.6707 51.8804 39.6773 51.8907 39.6711C51.8959 39.6679 51.9056 39.6629 51.9192 39.6583C51.9329 39.6536 51.9466 39.6507 51.959 39.6494L52.1669 41.6386ZM45.9079 42.5362L52.2048 41.6339L51.9211 39.6541L45.6242 40.5564L45.9079 42.5362ZM45.3418 44.8872C45.932 43.8208 46.3926 42.8131 46.7132 41.8673L44.819 41.2253C44.5454 42.0326 44.1392 42.93 43.5919 43.9187L45.3418 44.8872ZM48.8654 48.0564C47.3589 46.3877 46.1597 44.9682 45.2607 43.7948L43.6731 45.0112C44.6163 46.2423 45.8539 47.7052 47.3809 49.3966L48.8654 48.0564ZM33.6722 42.053C31.8338 43.7542 29.6281 44.6061 26.999 44.6061V46.6061C30.111 46.6061 32.8076 45.578 35.0305 43.5209L33.6722 42.053ZM36.3981 35.9814C36.3981 38.3468 35.5087 40.3534 33.6721 42.053L35.0306 43.5209C37.2571 41.4604 38.3981 38.9296 38.3981 35.9814H36.3981ZM33.6722 29.9106C35.5086 31.6098 36.3981 33.6162 36.3981 35.9814H38.3981C38.3981 33.0334 37.2569 30.5027 35.0305 28.4426L33.6722 29.9106ZM26.999 27.3571C29.6281 27.3571 31.8337 28.2086 33.672 29.9104L35.0307 28.4428C32.8076 26.3847 30.1109 25.3571 26.999 25.3571V27.3571ZM20.3253 29.9104C22.1636 28.2088 24.3693 27.3571 26.999 27.3571V25.3571C23.8866 25.3571 21.1898 26.3848 18.9667 28.4428L20.3253 29.9104ZM17.5994 35.9814C17.5994 33.6163 18.4891 31.6098 20.3252 29.9105L18.9667 28.4427C16.7409 30.5027 15.5994 33.0333 15.5994 35.9814H17.5994ZM20.3253 42.0531C18.4891 40.3534 17.5994 38.3467 17.5994 35.9814H15.5994C15.5994 38.9297 16.7409 41.4604 18.9667 43.5208L20.3253 42.0531ZM26.999 44.6061C24.3693 44.6061 22.1636 43.754 20.3252 42.0529L18.9668 43.5209C21.1898 45.5779 23.8864 46.6061 26.999 46.6061V44.6061Z" fill="#002B5A"/>
<path d="M74.9466 53.3302L74.0465 53.7658C74.199 54.081 74.5053 54.2934 74.8539 54.3259L74.9466 53.3302ZM73.7284 51.3752L72.8295 50.9369C72.6604 51.2837 72.7059 51.6969 72.9465 51.9986L73.7284 51.3752ZM74.9466 60.9247L74.8539 59.9291C74.5041 59.9616 74.197 60.1754 74.045 60.4921L74.9466 60.9247ZM73.7284 62.8788L72.9396 62.2641C72.7049 62.5653 72.6622 62.9737 72.8294 63.3169L73.7284 62.8788ZM75.6376 68.3307L76.1117 69.2112C76.1431 69.1943 76.1735 69.1757 76.2029 69.1556L75.6376 68.3307ZM68.731 69.2329L67.9777 69.8906L67.9778 69.8907L68.731 69.2329ZM66.6192 66.6769L67.4312 66.0932C67.2246 65.8058 66.8814 65.649 66.5288 65.681L66.6192 66.6769ZM64.1821 66.6769L64.2725 65.681C63.9201 65.649 63.5771 65.8056 63.3704 66.0928L64.1821 66.6769ZM62.0703 69.2329L62.8235 69.8907L62.8236 69.8906L62.0703 69.2329ZM55.1643 68.3307L54.599 69.1556C54.6283 69.1757 54.6587 69.1942 54.6901 69.2111L55.1643 68.3307ZM57.0731 62.8788L57.972 63.317C58.1393 62.9739 58.0966 62.5654 57.862 62.2642L57.0731 62.8788ZM55.8549 60.9247L56.7567 60.4928C56.6049 60.1757 56.2976 59.9617 55.9476 59.9291L55.8549 60.9247ZM55.8549 53.3307L55.9475 54.3264C56.2959 54.294 56.6021 54.0818 56.7547 53.7669L55.8549 53.3307ZM57.0731 51.3762L57.8553 51.9993C58.0956 51.6977 58.141 51.2847 57.972 50.9381L57.0731 51.3762ZM55.1643 45.9253L54.743 45.0183C54.6928 45.0417 54.6447 45.0691 54.599 45.1004L55.1643 45.9253ZM56.5861 45.1732L57.0598 46.0539L57.0601 46.0537L56.5861 45.1732ZM58.9827 43.8947L59.4504 44.7786L59.451 44.7783L58.9827 43.8947ZM62.0703 45.0406L61.3208 45.7025L61.3209 45.7026L62.0703 45.0406ZM64.1821 47.5786L63.3695 48.1614C63.5763 48.4497 63.9205 48.6069 64.2738 48.5744L64.1821 47.5786ZM66.6192 47.5786L66.5274 48.5743C66.8675 48.6057 67.2 48.4613 67.4093 48.1915L66.6192 47.5786ZM70.3565 43.3677L70.06 42.4126C69.9174 42.4569 69.7866 42.5325 69.6771 42.6339L70.3565 43.3677ZM70.5999 43.2921V42.2921C70.4994 42.2921 70.3994 42.3072 70.3034 42.337L70.5999 43.2921ZM75.6376 45.9238L76.2049 45.1003C76.1751 45.0798 76.1443 45.061 76.1125 45.0438L75.6376 45.9238ZM69.0762 60.5297L68.3971 59.7956L68.3964 59.7963L69.0762 60.5297ZM70.6006 57.1273L71.6006 57.128V57.1273H70.6006ZM69.057 53.7439L68.3777 54.4778L68.3777 54.4779L69.057 53.7439ZM61.7445 53.7439L62.4233 54.4782L62.4238 54.4778L61.7445 53.7439ZM61.7241 60.5297L62.4037 59.7961L62.4034 59.7958L61.7241 60.5297ZM75.8468 52.8946C75.4655 52.1068 75.0202 51.3913 74.5102 50.7517L72.9465 51.9986C73.3566 52.5129 73.7245 53.1006 74.0465 53.7658L75.8468 52.8946ZM82 54.4961C82 53.9938 81.6837 53.6865 81.5249 53.5613C81.3495 53.4229 81.1504 53.3307 80.9862 53.2664C80.6473 53.1337 80.1971 53.0222 79.6758 52.9217C78.6175 52.7179 77.0648 52.5231 75.0393 52.3345L74.8539 54.3259C76.8639 54.5131 78.3379 54.7008 79.2975 54.8856C79.7851 54.9796 80.0916 55.064 80.2571 55.1288C80.3452 55.1632 80.3352 55.1702 80.286 55.1313C80.2533 55.1055 80 54.8982 80 54.4961H82ZM82 59.7593V54.4961H80V59.7593H82ZM75.0393 61.9204C77.0648 61.7318 78.6174 61.5372 79.6757 61.3335C80.197 61.2331 80.6472 61.1217 80.9861 60.989C81.1502 60.9248 81.3494 60.8326 81.5248 60.6943C81.6836 60.569 82 60.2618 82 59.7593H80C80 59.3572 80.2534 59.1498 80.2861 59.124C80.3354 59.0852 80.3454 59.0921 80.2573 59.1266C80.0917 59.1913 79.7852 59.2757 79.2976 59.3696C78.338 59.5543 76.864 59.7419 74.8539 59.9291L75.0393 61.9204ZM74.5171 63.4935C75.0464 62.8144 75.4908 62.1021 75.8482 61.3573L74.045 60.4921C73.7527 61.1013 73.3853 61.6922 72.9396 62.2641L74.5171 63.4935ZM76.7998 68.0675C76.7998 67.7632 76.7225 67.4255 76.6299 67.1095C76.5314 66.7735 76.3895 66.3781 76.2105 65.9297C75.852 65.0319 75.3221 63.8663 74.6273 62.4407L72.8294 63.3169C73.5153 64.7241 74.021 65.8396 74.3531 66.6713C74.5193 67.0877 74.6365 67.4192 74.7106 67.6722C74.7476 67.7982 74.7713 67.896 74.7852 67.9689C74.7999 68.0455 74.7998 68.074 74.7998 68.0675H76.7998ZM76.2029 69.1556C76.4982 68.9532 76.7998 68.5899 76.7998 68.0675H74.7998C74.7998 67.9314 74.8385 67.7978 74.9071 67.686C74.9706 67.5825 75.0411 67.5272 75.0722 67.5059L76.2029 69.1556ZM70.5999 72C70.7361 72 70.8409 71.971 70.86 71.9659C70.8988 71.9557 70.9295 71.945 70.9462 71.9391C70.9807 71.9268 71.0097 71.9145 71.026 71.9074C71.0613 71.8922 71.0985 71.8746 71.1315 71.8587C71.2001 71.8255 71.2916 71.7794 71.402 71.7228C71.6246 71.6085 71.9475 71.4392 72.3684 71.2162C73.2111 70.7696 74.4594 70.101 76.1117 69.2112L75.1634 67.4503C73.5121 68.3396 72.2686 69.0057 71.432 69.4489C71.0131 69.6709 70.6994 69.8353 70.4886 69.9435C70.3823 69.9981 70.3079 70.0354 70.2614 70.0579C70.2368 70.0698 70.2291 70.0731 70.2322 70.0717C70.2325 70.0716 70.2486 70.0645 70.2733 70.0557C70.2851 70.0515 70.3118 70.0422 70.3473 70.0328C70.3632 70.0286 70.4654 70 70.5999 70V72ZM67.9778 69.8907C68.4991 70.4876 68.9366 70.9575 69.2828 71.2848C69.4538 71.4465 69.6244 71.5945 69.7869 71.7084C69.868 71.7653 69.9676 71.8282 70.08 71.8801C70.1797 71.9262 70.3656 72 70.5999 72V70C70.7799 70 70.8989 70.0553 70.9189 70.0646C70.9517 70.0798 70.9589 70.0875 70.935 70.0708C70.8874 70.0374 70.7973 69.9644 70.6569 69.8316C70.3801 69.5699 69.9917 69.1563 69.4842 68.5751L67.9778 69.8907ZM65.8072 67.2606C66.2163 67.8297 66.9497 68.7132 67.9777 69.8906L69.4843 68.5752C68.4546 67.3959 67.7787 66.5768 67.4312 66.0932L65.8072 67.2606ZM65.4014 67.7512C65.7197 67.7512 66.163 67.7224 66.7096 67.6728L66.5288 65.681C65.9926 65.7296 65.6243 65.7512 65.4014 65.7512V67.7512ZM64.0918 67.6728C64.6386 67.7224 65.0821 67.7512 65.4014 67.7512V65.7512C65.1774 65.7512 64.8088 65.7296 64.2725 65.681L64.0918 67.6728ZM62.8236 69.8906C63.8519 68.7129 64.5845 67.8298 64.9938 67.261L63.3704 66.0928C63.0222 66.5767 62.3465 67.3963 61.3171 68.5752L62.8236 69.8906ZM60.2015 72C60.4362 72 60.6224 71.9259 60.7218 71.8799C60.834 71.828 60.9334 71.7651 61.0145 71.7082C61.1767 71.5944 61.3473 71.4466 61.5183 71.2849C61.8645 70.9576 62.3021 70.4877 62.8235 69.8907L61.3171 68.5751C60.8097 69.1562 60.4212 69.5698 60.1443 69.8316C60.0038 69.9644 59.9136 70.0374 59.866 70.0709C59.8421 70.0876 59.8492 70.08 59.8819 70.0648C59.9017 70.0557 60.021 70 60.2015 70V72ZM54.6901 69.2111C56.3422 70.1012 57.5905 70.7698 58.4332 71.2163C58.854 71.4393 59.1769 71.6086 59.3996 71.7229C59.51 71.7795 59.6015 71.8256 59.6701 71.8587C59.7031 71.8747 59.7403 71.8922 59.7756 71.9075C59.7919 71.9145 59.8209 71.9268 59.8553 71.9391C59.872 71.9451 59.9028 71.9557 59.9416 71.966C59.9607 71.971 60.0654 72 60.2015 72V70C60.336 70 60.4382 70.0285 60.4541 70.0327C60.4895 70.0421 60.5162 70.0514 60.5281 70.0557C60.5528 70.0645 60.5689 70.0715 60.5691 70.0717C60.5723 70.073 60.5646 70.0697 60.54 70.0578C60.4935 70.0354 60.4191 69.9981 60.3128 69.9435C60.102 69.8353 59.7884 69.671 59.3696 69.4491C58.5331 69.0059 57.2898 68.3399 55.6386 67.4504L54.6901 69.2111ZM54.0016 68.0675C54.0016 68.5916 54.306 68.9548 54.599 69.1556L55.7297 67.5059C55.761 67.5274 55.8307 67.5821 55.8936 67.6844C55.9615 67.7946 56.0016 67.9284 56.0016 68.0675H54.0016ZM56.1742 62.4406C55.4792 63.8663 54.9492 65.032 54.5907 65.9298C54.4117 66.3782 54.2699 66.7737 54.1714 67.1096C54.0788 67.4256 54.0016 67.7632 54.0016 68.0675H56.0016C56.0016 68.074 56.0015 68.0455 56.0161 67.9689C56.0301 67.896 56.0537 67.7982 56.0907 67.6722C56.1648 67.4192 56.2819 67.0878 56.4482 66.6714C56.7802 65.8397 57.286 64.7242 57.972 63.317L56.1742 62.4406ZM54.953 61.3567C55.3102 62.1024 55.7556 62.8148 56.2843 63.4934L57.862 62.2642C57.416 61.6918 57.0481 61.1011 56.7567 60.4928L54.953 61.3567ZM48.8015 59.7593C48.8015 60.2617 49.1178 60.569 49.2767 60.6943C49.4521 60.8326 49.6512 60.9248 49.8154 60.989C50.1543 61.1216 50.6045 61.2331 51.1257 61.3335C52.184 61.5372 53.7366 61.7318 55.7621 61.9204L55.9476 59.9291C53.9374 59.7419 52.4634 59.5543 51.5038 59.3696C51.0162 59.2757 50.7097 59.1913 50.5442 59.1266C50.4561 59.0921 50.4661 59.0852 50.5154 59.1241C50.5481 59.1499 50.8015 59.3572 50.8015 59.7593H48.8015ZM48.8015 54.4961V59.7593H50.8015V54.4961H48.8015ZM55.7622 52.335C53.7367 52.5235 52.184 52.7181 51.1257 52.9219C50.6044 53.0223 50.1542 53.1338 49.8153 53.2665C49.6511 53.3307 49.452 53.4229 49.2767 53.5612C49.1179 53.6865 48.8015 53.9937 48.8015 54.4961H50.8015C50.8015 54.8983 50.548 55.1057 50.5154 55.1314C50.4662 55.1703 50.4562 55.1633 50.5443 55.1289C50.7098 55.0641 51.0163 54.9797 51.5039 54.8858C52.4634 54.701 53.9374 54.5134 55.9475 54.3264L55.7622 52.335ZM56.291 50.7532C55.7817 51.3924 55.3364 52.1076 54.955 52.8946L56.7547 53.7669C57.077 53.1019 57.4453 52.5139 57.8553 51.9993L56.291 50.7532ZM54.0016 46.1876C54.0016 46.492 54.0787 46.8296 54.1714 47.1458C54.2699 47.4819 54.4117 47.8773 54.5908 48.3256C54.9492 49.2233 55.4792 50.3887 56.1742 51.8144L57.972 50.9381C57.286 49.5307 56.7802 48.4155 56.4481 47.5839C56.2819 47.1676 56.1648 46.8363 56.0907 46.5833C56.0537 46.4573 56.0301 46.3595 56.0161 46.2866C56.0015 46.21 56.0016 46.1813 56.0016 46.1876H54.0016ZM54.599 45.1004C54.3077 45.3001 54.0016 45.6629 54.0016 46.1876H56.0016C56.0016 46.3287 55.9606 46.4629 55.893 46.5725C55.8303 46.6742 55.761 46.7287 55.7297 46.7501L54.599 45.1004ZM56.1123 44.2925C55.6931 44.5181 55.3672 44.6922 55.1334 44.8158C55.0164 44.8777 54.924 44.926 54.8553 44.9615C54.8209 44.9792 54.7939 44.9931 54.7734 45.0033C54.7512 45.0145 54.7427 45.0185 54.743 45.0183L55.5857 46.8322C55.7286 46.7658 56.238 46.496 57.0598 46.0539L56.1123 44.2925ZM58.515 43.0108C57.7554 43.4127 56.9542 43.8392 56.112 44.2927L57.0601 46.0537C57.8972 45.603 58.6939 45.1788 59.4504 44.7786L58.515 43.0108ZM60.2015 42.2922C60.0712 42.2922 59.9696 42.3181 59.9397 42.3257C59.8947 42.3372 59.8569 42.3498 59.8321 42.3586C59.7819 42.3763 59.7339 42.3964 59.6955 42.4131C59.6161 42.4477 59.5199 42.4935 59.4134 42.5461C59.1974 42.6529 58.8963 42.8087 58.5145 43.0111L59.451 44.7783C59.8278 44.5786 60.1091 44.4332 60.2993 44.3392C60.3959 44.2915 60.4588 44.2621 60.4945 44.2465C60.5136 44.2382 60.5122 44.2395 60.4975 44.2446C60.4904 44.2471 60.4676 44.255 60.4348 44.2634C60.4173 44.2679 60.3251 44.2922 60.2015 44.2922V42.2922ZM62.8199 44.3787C62.2986 43.7883 61.8609 43.3234 61.5147 42.9994C61.3436 42.8393 61.173 42.6929 61.0107 42.5802C60.9296 42.5239 60.8303 42.4617 60.7184 42.4104C60.6191 42.3649 60.4342 42.2922 60.2015 42.2922V44.2922C60.0231 44.2922 59.9051 44.2377 59.8854 44.2287C59.853 44.2139 59.846 44.2064 59.8699 44.223C59.9176 44.2561 60.0077 44.3284 60.1482 44.4598C60.425 44.7187 60.8133 45.128 61.3208 45.7025L62.8199 44.3787ZM64.9948 46.9958C64.5842 46.4233 63.8484 45.543 62.8198 44.3786L61.3209 45.7026C62.3503 46.868 63.0245 47.6803 63.3695 48.1614L64.9948 46.9958ZM65.4014 46.503C65.0812 46.503 64.6373 46.5324 64.0904 46.5828L64.2738 48.5744C64.8109 48.5249 65.1783 48.503 65.4014 48.503V46.503ZM66.711 46.5828C66.1646 46.5324 65.7207 46.503 65.4014 46.503V48.503C65.6236 48.503 65.991 48.5249 66.5274 48.5743L66.711 46.5828ZM69.6771 42.6339C68.5126 43.7122 67.229 45.1611 65.8291 46.9656L67.4093 48.1915C68.7706 46.4368 69.9798 45.0793 71.0359 44.1014L69.6771 42.6339ZM70.3034 42.337L70.06 42.4126L70.653 44.3227L70.8964 44.2471L70.3034 42.337ZM76.1125 45.0438C74.4862 44.1661 73.2491 43.5056 72.4035 43.0638C71.9817 42.8434 71.6512 42.6742 71.4163 42.5589C71.3003 42.5019 71.1979 42.4533 71.1153 42.4172C71.0753 42.3997 71.0269 42.3793 70.9773 42.3615C70.953 42.3527 70.9157 42.3399 70.8713 42.3281C70.8455 42.3213 70.7379 42.2921 70.5999 42.2921V44.2921C70.4688 44.2921 70.3709 44.2646 70.3581 44.2612C70.3266 44.2528 70.3052 44.2452 70.3 44.2433C70.2885 44.2391 70.2904 44.2393 70.3131 44.2492C70.3558 44.2679 70.4276 44.3016 70.535 44.3543C70.7469 44.4583 71.0596 44.6181 71.4773 44.8364C72.3107 45.2718 73.5382 45.9272 75.1626 46.8038L76.1125 45.0438ZM76.7998 46.1865C76.7998 45.6649 76.4975 45.302 76.2049 45.1003L75.0702 46.7473C75.0389 46.7257 74.9697 46.6709 74.9071 46.5689C74.8398 46.4591 74.7998 46.3256 74.7998 46.1865H76.7998ZM74.6272 51.8135C75.3225 50.3878 75.8525 49.222 76.2109 48.3241C76.3899 47.8757 76.5316 47.4802 76.63 47.1442C76.7226 46.8282 76.7998 46.4907 76.7998 46.1865H74.7998C74.7998 46.1801 74.7999 46.2086 74.7852 46.2853C74.7713 46.3582 74.7476 46.456 74.7107 46.582C74.6366 46.8349 74.5195 47.1664 74.3534 47.5827C74.0214 48.4143 73.5157 49.5298 72.8295 50.9369L74.6272 51.8135ZM68.3964 59.7963C67.5745 60.5581 66.5941 60.9407 65.4004 60.9407V62.9407C67.0776 62.9407 68.5494 62.3815 69.756 61.2631L68.3964 59.7963ZM69.6006 57.1267C69.5999 58.1643 69.2182 59.036 68.3971 59.7956L69.7552 61.2638C70.9665 60.1432 71.5996 58.7475 71.6006 57.128L69.6006 57.1267ZM68.3777 54.4779C69.2191 55.2566 69.6006 56.1261 69.6006 57.1273H71.6006C71.6006 55.523 70.9517 54.135 69.7362 53.01L68.3777 54.4779ZM65.4002 53.3153C66.5576 53.3153 67.5343 53.6972 68.3777 54.4778L69.7362 53.0101C68.521 51.8852 67.0583 51.3153 65.4002 51.3153V53.3153ZM62.4238 54.4778C63.2668 53.6975 64.2428 53.3153 65.4002 53.3153V51.3153C63.7415 51.3153 62.2796 51.886 61.0652 53.0101L62.4238 54.4778ZM61.2 57.1273C61.2 56.126 61.5814 55.2567 62.4233 54.4782L61.0656 53.0097C59.8489 54.1346 59.2 55.5228 59.2 57.1273H61.2ZM62.4034 59.7958C61.5821 59.0357 61.2 58.164 61.2 57.1273H59.2C59.2 58.7478 59.8346 60.1435 61.0449 61.2636L62.4034 59.7958ZM65.4004 60.9407C64.2063 60.9407 63.2263 60.5582 62.4037 59.7961L61.0445 61.2633C62.2515 62.3814 63.7226 62.9407 65.4004 62.9407V60.9407Z" fill="#002B5A"/>
<path fill-rule="evenodd" clip-rule="evenodd" d="M73.7284 9.08285C74.1884 9.65976 74.595 10.3113 74.9466 11.0382C78.9821 11.4143 81 11.8028 81 12.2039V17.4675C81 17.8684 78.9821 18.257 74.9466 18.6327C74.6218 19.3095 74.2158 19.9611 73.7284 20.5878C75.109 23.4204 75.7998 25.1493 75.7998 25.7761C75.7998 25.8762 75.7467 25.9639 75.6376 26.0391C72.334 27.8185 70.654 28.7083 70.5999 28.7083C70.3827 28.7083 69.7599 28.1196 68.731 26.9414C67.7021 25.763 66.9975 24.9114 66.6192 24.3848C66.0778 24.4346 65.672 24.46 65.4014 24.46C65.1298 24.46 64.7237 24.4346 64.1821 24.3848C63.8034 24.9114 63.0992 25.7632 62.0703 26.9414C61.0415 28.1196 60.4181 28.7083 60.2015 28.7083C60.1475 28.7083 58.4677 27.8185 55.1643 26.0391C55.0552 25.9639 55.0016 25.8758 55.0016 25.7761C55.0016 25.1493 55.6921 23.4204 57.0731 20.5878C56.5858 19.9611 56.1791 19.3091 55.8549 18.6327C51.8192 18.2571 49.8015 17.8684 49.8015 17.4675V12.2039C49.8015 11.8028 51.8192 11.4145 55.8549 11.0388C56.2067 10.3119 56.6135 9.66042 57.0731 9.08364C55.6921 6.25161 55.0016 4.52193 55.0016 3.89537C55.0016 3.79502 55.0552 3.70732 55.1643 3.63213C55.2729 3.58235 55.7457 3.33188 56.5861 2.88047C57.4257 2.42918 58.2246 2.00331 58.9827 1.6018C59.7414 1.20043 60.1475 1.00013 60.2015 1.00013C60.4182 1.00013 61.0416 1.58271 62.0703 2.74839C63.0993 3.9138 63.8044 4.75962 64.1821 5.28596C64.7241 5.23619 65.1298 5.2109 65.4014 5.2109C65.6721 5.2109 66.0778 5.23619 66.6192 5.28596C67.9998 3.5065 69.2462 2.10326 70.3565 1.07506L70.5999 1C70.7084 1 72.3869 1.87716 75.6376 3.6316C75.7467 3.70692 75.7998 3.79502 75.7998 3.89484C75.7998 4.5214 75.1098 6.25095 73.7284 9.08285ZM65.4004 19.6481C66.8359 19.6481 68.0619 19.1781 69.0762 18.238C70.0924 17.2984 70.5998 16.1641 70.6006 14.8357C70.6006 13.5324 70.0854 12.4041 69.057 11.4517C68.0277 10.4998 66.808 10.023 65.4002 10.023C63.9922 10.023 62.7732 10.4993 61.7445 11.4517C60.7152 12.4042 60.2 13.5324 60.2 14.8357C60.2 16.1641 60.7083 17.2984 61.7241 18.238C62.7389 19.1781 63.9644 19.6481 65.4004 19.6481Z" fill="#BEC8D5"/>
<path d="M74.9466 11.0382L74.0464 11.4737C74.1989 11.7889 74.5051 12.0014 74.8538 12.0339L74.9466 11.0382ZM73.7284 9.08285L72.8296 8.64441C72.6604 8.99127 72.7059 9.40454 72.9465 9.70629L73.7284 9.08285ZM74.9466 18.6327L74.8539 17.637C74.5041 17.6695 74.1971 17.8833 74.0451 18.2L74.9466 18.6327ZM73.7284 20.5878L72.939 19.9738C72.7048 20.2749 72.6623 20.683 72.8295 21.0259L73.7284 20.5878ZM75.6376 26.0391L76.1118 26.9195C76.1438 26.9022 76.1749 26.8832 76.2049 26.8625L75.6376 26.0391ZM68.731 26.9414L67.9777 27.5991L67.9778 27.5991L68.731 26.9414ZM66.6192 24.3848L67.4313 23.8013C67.2245 23.5134 66.8807 23.3566 66.5276 23.389L66.6192 24.3848ZM64.1821 24.3848L64.2737 23.389C63.9208 23.3566 63.5772 23.5133 63.3703 23.8009L64.1821 24.3848ZM62.0703 26.9414L61.3171 26.2836H61.3171L62.0703 26.9414ZM55.1643 26.0391L54.597 26.8625C54.627 26.8832 54.658 26.9022 54.6901 26.9194L55.1643 26.0391ZM57.0731 20.5878L57.972 21.026C58.1391 20.6832 58.0967 20.2751 57.8625 19.9739L57.0731 20.5878ZM55.8549 18.6327L56.7566 18.2004C56.6047 17.8835 56.2975 17.6695 55.9475 17.637L55.8549 18.6327ZM55.8549 11.0388L55.9476 12.0345C56.2962 12.002 56.6024 11.7896 56.7549 11.4745L55.8549 11.0388ZM57.0731 9.08364L57.8552 9.70681C58.0956 9.40512 58.141 8.99206 57.9719 8.64533L57.0731 9.08364ZM55.1643 3.63213L54.7476 2.72312C54.695 2.74723 54.6446 2.77585 54.597 2.80866L55.1643 3.63213ZM56.5861 2.88047L57.0593 3.76141L57.0595 3.7613L56.5861 2.88047ZM58.9827 1.6018L58.5151 0.717884L58.5147 0.718093L58.9827 1.6018ZM62.0703 2.74839L61.3205 3.41008L61.3207 3.41026L62.0703 2.74839ZM64.1821 5.28596L63.3697 5.86905C63.5765 6.15717 63.9204 6.31421 64.2736 6.28177L64.1821 5.28596ZM66.6192 5.28596L66.5276 6.28176C66.8676 6.31302 67.2 6.16869 67.4093 5.89896L66.6192 5.28596ZM70.3565 1.07506L70.0618 0.119451C69.9185 0.163631 69.787 0.239473 69.677 0.341361L70.3565 1.07506ZM70.5999 1V0C70.5001 0 70.4007 0.0149627 70.3053 0.0443898L70.5999 1ZM75.6376 3.6316L76.2056 2.8086C76.1756 2.78791 76.1446 2.76888 76.1125 2.75159L75.6376 3.6316ZM69.0762 18.238L68.3973 17.5038L68.3964 17.5046L69.0762 18.238ZM70.6006 14.8357L71.6006 14.8363V14.8357H70.6006ZM69.057 11.4517L69.7364 10.718L69.7359 10.7176L69.057 11.4517ZM61.7445 11.4517L62.4237 12.1857L62.4239 12.1855L61.7445 11.4517ZM61.7241 18.238L62.4037 17.5044L62.4032 17.5039L61.7241 18.238ZM75.8468 10.6028C75.4656 9.81453 75.0202 9.09898 74.5102 8.45941L72.9465 9.70629C73.3565 10.2205 73.7245 10.8082 74.0464 11.4737L75.8468 10.6028ZM82 12.2039C82 11.7015 81.6836 11.3943 81.5248 11.269C81.3494 11.1306 81.1502 11.0385 80.9861 10.9742C80.6472 10.8416 80.197 10.7301 79.6757 10.6297C78.6175 10.426 77.0648 10.2313 75.0394 10.0426L74.8538 12.0339C76.8639 12.2213 78.338 12.4089 79.2976 12.5937C79.7852 12.6876 80.0917 12.7719 80.2573 12.8367C80.3453 12.8712 80.3354 12.8781 80.2861 12.8392C80.2534 12.8134 80 12.6061 80 12.2039H82ZM82 17.4675V12.2039H80V17.4675H82ZM75.0393 19.6284C77.0648 19.4398 78.6174 19.2452 79.6757 19.0415C80.1969 18.9412 80.6471 18.8297 80.986 18.6971C81.1501 18.6329 81.3492 18.5408 81.5246 18.4025C81.6833 18.2774 82 17.9702 82 17.4675H80C80 17.0651 80.2537 16.8577 80.2863 16.832C80.3355 16.7932 80.3455 16.8001 80.2574 16.8346C80.0918 16.8994 79.7852 16.9837 79.2976 17.0776C78.338 17.2623 76.864 17.4498 74.8539 17.637L75.0393 19.6284ZM74.5177 21.2018C75.0465 20.522 75.4908 19.81 75.8482 19.0653L74.0451 18.2C73.7528 18.8091 73.3852 19.4002 72.939 19.9738L74.5177 21.2018ZM76.7998 25.7761C76.7998 25.4717 76.7225 25.134 76.6299 24.818C76.5314 24.482 76.3895 24.0866 76.2105 23.6382C75.852 22.7406 75.3221 21.5751 74.6273 20.1497L72.8295 21.0259C73.5153 22.433 74.021 23.5483 74.3531 24.3799C74.5193 24.7963 74.6365 25.1277 74.7106 25.3806C74.7476 25.5066 74.7713 25.6044 74.7852 25.6773C74.7999 25.7539 74.7998 25.7825 74.7998 25.7761H76.7998ZM76.2049 26.8625C76.4968 26.6614 76.7998 26.2993 76.7998 25.7761H74.7998C74.7998 25.6386 74.8391 25.5049 74.9074 25.3937C74.9705 25.2909 75.0402 25.2363 75.0702 25.2156L76.2049 26.8625ZM70.5999 29.7083C70.7361 29.7083 70.8408 29.6793 70.8599 29.6743C70.8987 29.664 70.9295 29.6534 70.9461 29.6474C70.9806 29.6351 71.0096 29.6229 71.0259 29.6158C71.0612 29.6005 71.0984 29.583 71.1314 29.5671C71.2 29.5339 71.2915 29.4878 71.4019 29.4312C71.6246 29.3169 71.9475 29.1476 72.3683 28.9246C73.2112 28.4781 74.4595 27.8095 76.1118 26.9195L75.1633 25.1586C73.512 26.0481 72.2686 26.7141 71.432 27.1573C71.0131 27.3793 70.6995 27.5436 70.4887 27.6518C70.3824 27.7064 70.308 27.7437 70.2615 27.7662C70.2368 27.778 70.2292 27.7813 70.2323 27.78C70.2326 27.7799 70.2487 27.7728 70.2734 27.764C70.2852 27.7598 70.3119 27.7505 70.3474 27.7411C70.3632 27.7369 70.4655 27.7083 70.5999 27.7083V29.7083ZM67.9778 27.5991C68.4991 28.1961 68.9366 28.666 69.2828 28.9933C69.4538 29.155 69.6245 29.3029 69.787 29.4168C69.8681 29.4737 69.9677 29.5366 70.0801 29.5885C70.1798 29.6346 70.3657 29.7083 70.5999 29.7083V27.7083C70.7798 27.7083 70.8987 27.7636 70.9188 27.7729C70.9515 27.788 70.9587 27.7957 70.9349 27.779C70.8873 27.7457 70.7973 27.6728 70.6568 27.54C70.3801 27.2784 69.9917 26.8648 69.4842 26.2836L67.9778 27.5991ZM65.8071 24.9683C66.2162 25.5378 66.9496 26.4216 67.9777 27.5991L69.4843 26.2836C68.4546 25.1045 67.7788 24.285 67.4313 23.8013L65.8071 24.9683ZM65.4014 25.46C65.7202 25.46 66.164 25.4309 66.7108 25.3806L66.5276 23.389C65.9916 23.4383 65.6238 23.46 65.4014 23.46V25.46ZM64.0906 25.3806C64.6376 25.4309 65.0816 25.46 65.4014 25.46V23.46C65.1779 23.46 64.8097 23.4383 64.2737 23.389L64.0906 25.3806ZM62.8235 27.5991C63.852 26.4214 64.5846 25.5378 64.994 24.9687L63.3703 23.8009C63.0221 24.285 62.3464 25.105 61.3171 26.2836L62.8235 27.5991ZM60.2015 29.7083C60.4361 29.7083 60.6222 29.6343 60.7216 29.5883C60.8339 29.5364 60.9333 29.4735 61.0143 29.4167C61.1766 29.3029 61.3472 29.1551 61.5183 28.9934C61.8645 28.6661 62.3021 28.1962 62.8236 27.5991L61.3171 26.2836C60.8097 26.8647 60.4212 27.2783 60.1444 27.5399C60.0039 27.6727 59.9137 27.7457 59.8661 27.7791C59.8422 27.7959 59.8493 27.7882 59.882 27.7731C59.9019 27.7639 60.0211 27.7083 60.2015 27.7083V29.7083ZM54.6901 26.9194C56.3423 27.8094 57.5905 28.4781 58.4332 28.9246C58.854 29.1476 59.1769 29.3169 59.3996 29.4311C59.5099 29.4878 59.6015 29.5339 59.6701 29.567C59.703 29.583 59.7402 29.6005 59.7755 29.6158C59.7919 29.6228 59.8209 29.6351 59.8553 29.6474C59.872 29.6534 59.9028 29.664 59.9415 29.6743C59.9607 29.6793 60.0654 29.7083 60.2015 29.7083V27.7083C60.336 27.7083 60.4383 27.7369 60.4541 27.7411C60.4896 27.7505 60.5163 27.7598 60.5281 27.764C60.5528 27.7728 60.5689 27.7799 60.5692 27.78C60.5723 27.7814 60.5647 27.7781 60.5401 27.7662C60.4936 27.7437 60.4192 27.7064 60.3128 27.6518C60.1021 27.5437 59.7884 27.3793 59.3696 27.1574C58.5331 26.7141 57.2897 26.0481 55.6386 25.1587L54.6901 26.9194ZM54.0016 25.7761C54.0016 26.3013 54.3076 26.6632 54.597 26.8625L55.7317 25.2156C55.7617 25.2362 55.8306 25.2903 55.8933 25.392C55.961 25.5018 56.0016 25.6359 56.0016 25.7761H54.0016ZM56.1743 20.1496C55.4792 21.5751 54.9492 22.7405 54.5908 23.6383C54.4117 24.0866 54.2699 24.482 54.1714 24.818C54.0788 25.1341 54.0016 25.4717 54.0016 25.7761H56.0016C56.0016 25.7825 56.0015 25.7539 56.0161 25.6773C56.0301 25.6043 56.0537 25.5066 56.0907 25.3806C56.1648 25.1276 56.2819 24.7962 56.4482 24.3799C56.7802 23.5484 57.286 22.4331 57.972 21.026L56.1743 20.1496ZM54.9531 19.0649C55.3102 19.8098 55.7554 20.5223 56.2837 21.2017L57.8625 19.9739C57.4162 19.4 57.0481 18.8085 56.7566 18.2004L54.9531 19.0649ZM48.8015 17.4675C48.8015 17.9701 49.1181 18.2773 49.2768 18.4025C49.4522 18.5408 49.6513 18.6329 49.8154 18.6971C50.1543 18.8297 50.6045 18.9412 51.1257 19.0415C52.184 19.2453 53.7367 19.4399 55.7622 19.6284L55.9475 17.637C53.9374 17.4499 52.4634 17.2623 51.5038 17.0776C51.0162 16.9837 50.7097 16.8994 50.5441 16.8346C50.4561 16.8001 50.466 16.7932 50.5153 16.8321C50.5478 16.8578 50.8015 17.0651 50.8015 17.4675H48.8015ZM48.8015 12.2039V17.4675H50.8015V12.2039H48.8015ZM55.7622 10.0431C53.7367 10.2316 52.184 10.4262 51.1258 10.6298C50.6045 10.7302 50.1543 10.8416 49.8154 10.9742C49.6513 11.0385 49.4521 11.1306 49.2767 11.269C49.1178 11.3943 48.8015 11.7015 48.8015 12.2039H50.8015C50.8015 12.6061 50.5481 12.8134 50.5154 12.8392C50.4661 12.8781 50.4561 12.8712 50.5441 12.8367C50.7097 12.772 51.0162 12.6876 51.5038 12.5938C52.4634 12.4091 53.9374 12.2216 55.9476 12.0345L55.7622 10.0431ZM56.291 8.46047C55.7817 9.09963 55.3363 9.81483 54.9548 10.6031L56.7549 11.4745C57.0771 10.8089 57.4453 10.2212 57.8552 9.70681L56.291 8.46047ZM54.0016 3.89537C54.0016 4.19965 54.0788 4.53728 54.1714 4.85335C54.2699 5.18938 54.4117 5.58484 54.5907 6.03325C54.9492 6.9311 55.4792 8.09664 56.1743 9.52195L57.9719 8.64533C57.2859 7.23861 56.7802 6.12329 56.4482 5.29166C56.2819 4.87532 56.1648 4.54387 56.0907 4.29087C56.0537 4.16484 56.0301 4.06705 56.0161 3.99413C56.0015 3.91747 56.0016 3.8889 56.0016 3.89537H54.0016ZM54.597 2.80866C54.3079 3.00785 54.0016 3.36927 54.0016 3.89537H56.0016C56.0016 4.03429 55.9615 4.16848 55.8932 4.27921C55.8302 4.38141 55.7609 4.43547 55.7317 4.45559L54.597 2.80866ZM56.1128 1.99953C55.6932 2.22496 55.3671 2.39922 55.1332 2.52296C55.0161 2.58491 54.9239 2.63322 54.8555 2.66854C54.8212 2.68621 54.7945 2.69982 54.7745 2.70983C54.7526 2.72081 54.7454 2.72411 54.7476 2.72312L55.5811 4.54113C55.7271 4.47419 56.2417 4.2006 57.0593 3.76141L56.1128 1.99953ZM58.5147 0.718093C57.7549 1.12048 56.9542 1.54731 56.1126 1.99964L57.0595 3.7613C57.8972 3.31105 58.6943 2.88614 59.4508 2.48551L58.5147 0.718093ZM60.2015 0.000131667C60.0713 0.000131667 59.9697 0.0259485 59.9399 0.0335612C59.8949 0.0450602 59.8571 0.0576702 59.8323 0.0664054C59.7821 0.0840955 59.7341 0.104135 59.6958 0.120844C59.6165 0.155376 59.5203 0.201159 59.4138 0.25372C59.1979 0.360272 58.8969 0.515905 58.5151 0.717884L59.4504 2.48572C59.8273 2.28632 60.1086 2.14112 60.2989 2.04718C60.3956 1.9995 60.4585 1.97012 60.4942 1.95455C60.5134 1.94621 60.5119 1.94747 60.4972 1.95264C60.4902 1.95511 60.4674 1.96303 60.4347 1.9714C60.4171 1.97588 60.325 2.00013 60.2015 2.00013V0.000131667ZM62.8201 2.0867C62.2987 1.49584 61.8609 1.03078 61.5145 0.706782C61.3433 0.546702 61.1727 0.400358 61.0103 0.28772C60.9292 0.23144 60.8299 0.169313 60.7179 0.1181C60.6186 0.0726415 60.4339 0.000131667 60.2015 0.000131667V2.00013C60.0234 2.00013 59.9056 1.94583 59.8858 1.93678C59.8535 1.92198 59.8465 1.91448 59.8703 1.93103C59.9179 1.96405 60.008 2.0362 60.1483 2.16748C60.425 2.42619 60.8133 2.83525 61.3205 3.41008L62.8201 2.0867ZM64.9945 4.70288C64.5841 4.13097 63.8483 3.25123 62.8199 2.08651L61.3207 3.41026C62.3503 4.57638 63.0246 5.38826 63.3697 5.86905L64.9945 4.70288ZM65.4014 4.2109C65.0817 4.2109 64.6383 4.23986 64.0907 4.29016L64.2736 6.28177C64.8099 6.23251 65.1778 6.2109 65.4014 6.2109V4.2109ZM66.7108 4.29016C66.1637 4.23987 65.7202 4.2109 65.4014 4.2109V6.2109C65.624 6.2109 65.9919 6.23251 66.5276 6.28176L66.7108 4.29016ZM69.677 0.341361C68.5126 1.4197 67.229 2.86864 65.8291 4.67297L67.4093 5.89896C68.7706 4.14436 69.9798 2.78682 71.036 1.80876L69.677 0.341361ZM70.3053 0.0443898L70.0618 0.119451L70.6511 2.03067L70.8946 1.95561L70.3053 0.0443898ZM76.1125 2.75159C74.4862 1.87385 73.2491 1.21336 72.4035 0.771552C71.9816 0.55117 71.6512 0.382053 71.4163 0.266764C71.3002 0.209804 71.1978 0.161186 71.1152 0.125034C71.0752 0.107544 71.0268 0.0871723 70.9773 0.069347C70.953 0.0606039 70.9156 0.0478091 70.8712 0.036033C70.8455 0.0291983 70.7378 0 70.5999 0V2C70.4688 2 70.371 1.97251 70.3582 1.96911C70.3267 1.96076 70.3053 1.9531 70.3001 1.95121C70.2886 1.94709 70.2905 1.94728 70.3132 1.9572C70.3559 1.97587 70.4277 2.00949 70.5351 2.06217C70.747 2.16618 71.0597 2.326 71.4774 2.54422C72.3107 2.9796 73.5382 3.63491 75.1626 4.51161L76.1125 2.75159ZM76.7998 3.89484C76.7998 3.37279 76.4978 3.01026 76.2056 2.8086L75.0695 4.45461C75.039 4.43354 74.9696 4.37886 74.9069 4.2765C74.8392 4.16604 74.7998 4.03267 74.7998 3.89484H76.7998ZM74.6271 9.52128C75.3224 8.09597 75.8524 6.93045 76.2108 6.03258C76.3898 5.58416 76.5316 5.18871 76.63 4.85267C76.7226 4.53657 76.7998 4.19903 76.7998 3.89484H74.7998C74.7998 3.88844 74.7999 3.91705 74.7852 3.99371C74.7713 4.06664 74.7476 4.16444 74.7107 4.29045C74.6366 4.54342 74.5195 4.87483 74.3534 5.29111C74.0214 6.12263 73.5158 7.23783 72.8296 8.64441L74.6271 9.52128ZM68.3964 17.5046C67.5749 18.2661 66.5946 18.6481 65.4004 18.6481V20.6481C67.0771 20.6481 68.549 20.0901 69.756 18.9714L68.3964 17.5046ZM69.6006 14.835C69.5999 15.8726 69.2181 16.7449 68.3973 17.5038L69.755 18.9723C70.9667 17.852 71.5996 16.4555 71.6006 14.8363L69.6006 14.835ZM68.3775 12.1855C69.2192 12.9648 69.6006 13.834 69.6006 14.8357H71.6006C71.6006 13.2307 70.9516 11.8433 69.7364 10.718L68.3775 12.1855ZM65.4002 11.023C66.5572 11.023 67.5342 11.4055 68.378 12.1859L69.7359 10.7176C68.5212 9.59408 67.0588 9.02295 65.4002 9.02295V11.023ZM62.4239 12.1855C63.2668 11.4051 64.2428 11.023 65.4002 11.023V9.02295C63.7415 9.02295 62.2796 9.59345 61.0651 10.718L62.4239 12.1855ZM61.2 14.8357C61.2 13.8341 61.5813 12.9652 62.4237 12.1857L61.0653 10.7178C59.849 11.8432 59.2 13.2306 59.2 14.8357H61.2ZM62.4032 17.5039C61.5822 16.7446 61.2 15.8723 61.2 14.8357H59.2C59.2 16.4559 59.8344 17.8523 61.0451 18.9721L62.4032 17.5039ZM65.4004 18.6481C64.2058 18.6481 63.226 18.2662 62.4037 17.5044L61.0445 18.9716C62.2518 20.0901 63.723 20.6481 65.4004 20.6481V18.6481Z" fill="#002B5A"/>
</svg>
