<svg width="82" height="72" viewBox="0 0 82 72" fill="none" xmlns="http://www.w3.org/2000/svg">
<g id="garage-icon">
<g id="Combined Shape">
<path fill-rule="evenodd" clip-rule="evenodd" d="M30.5605 50.359H51.4301V55.7436H30.5605V50.359Z" fill="#BEC8D5"/>
<path d="M51.4301 50.359H52.4301C52.4301 49.8067 51.9824 49.359 51.4301 49.359V50.359ZM30.5605 50.359V49.359C30.0083 49.359 29.5605 49.8067 29.5605 50.359H30.5605ZM51.4301 55.7436V56.7436C51.9824 56.7436 52.4301 56.2959 52.4301 55.7436H51.4301ZM30.5605 55.7436H29.5605C29.5605 56.2959 30.0083 56.7436 30.5605 56.7436V55.7436ZM51.4301 49.359H30.5605V51.359H51.4301V49.359ZM52.4301 55.7436V50.359H50.4301V55.7436H52.4301ZM30.5605 56.7436H51.4301V54.7436H30.5605V56.7436ZM29.5605 50.359V55.7436H31.5605V50.359H29.5605Z" fill="#002B5A"/>
</g>
<path id="Rectangle 3" d="M23.6074 34.4103C23.6074 33.3057 24.5029 32.4103 25.6074 32.4103H56.39C57.4946 32.4103 58.39 33.3057 58.39 34.4103V43.1795H23.6074V34.4103Z" stroke="#002B5A" stroke-width="2" stroke-linecap="round" stroke-linejoin="round"/>
<path id="Rectangle 2" d="M16.6543 59.3333H65.3499V62.7179C65.3499 63.8225 64.4545 64.7179 63.3499 64.7179H18.6543C17.5497 64.7179 16.6543 63.8225 16.6543 62.7179V59.3333Z" fill="#BEC8D5" stroke="#002B5A" stroke-width="2" stroke-linecap="round" stroke-linejoin="round"/>
<rect id="Rectangle 4" x="19.2617" y="64.7179" width="6.95652" height="5.38462" fill="#BEC8D5" stroke="#002B5A" stroke-width="2" stroke-linecap="round" stroke-linejoin="round"/>
<rect id="Rectangle 4_2" x="55.7852" y="64.7179" width="6.95652" height="5.38462" fill="#BEC8D5" stroke="#002B5A" stroke-width="2" stroke-linecap="round" stroke-linejoin="round"/>
<g id="Combined Shape_2">
<path fill-rule="evenodd" clip-rule="evenodd" d="M79.26 8.17949H2.73828V71L7.95312 71V13.5641H74.0401V71L79.26 71V8.17949Z" fill="#BEC8D5"/>
<path d="M2.73828 8.17949V7.17949C2.186 7.17949 1.73828 7.6272 1.73828 8.17949H2.73828ZM79.26 8.17949H80.26C80.26 7.6272 79.8123 7.17949 79.26 7.17949V8.17949ZM2.73828 71H1.73828C1.73828 71.2652 1.84364 71.5196 2.03117 71.7071C2.21871 71.8946 2.47307 72 2.73828 72L2.73828 71ZM7.95312 71L7.95313 72C8.50541 72 8.95312 71.5523 8.95312 71H7.95312ZM7.95312 13.5641V12.5641C7.40084 12.5641 6.95312 13.0118 6.95312 13.5641H7.95312ZM74.0401 13.5641H75.0401C75.0401 13.0118 74.5924 12.5641 74.0401 12.5641V13.5641ZM74.0401 71H73.0401C73.0401 71.5523 73.4878 72 74.0401 72V71ZM79.26 71V72C79.5252 72 79.7796 71.8946 79.9671 71.7071C80.1547 71.5196 80.26 71.2652 80.26 71H79.26ZM2.73828 9.17949H79.26V7.17949H2.73828V9.17949ZM3.73828 71V8.17949H1.73828V71H3.73828ZM7.95312 70L2.73828 70L2.73828 72L7.95313 72L7.95312 70ZM8.95312 71V13.5641H6.95312V71H8.95312ZM7.95312 14.5641H74.0401V12.5641H7.95312V14.5641ZM73.0401 13.5641V71H75.0401V13.5641H73.0401ZM79.26 70L74.0401 70V72L79.26 72V70ZM78.26 8.17949V71H80.26V8.17949H78.26Z" fill="#002B5A"/>
</g>
<rect id="Rectangle" x="7.95312" y="13.5641" width="66.087" height="3.58974" fill="#BEC8D5" stroke="#002B5A" stroke-width="2" stroke-linecap="round" stroke-linejoin="round"/>
<rect id="Rectangle_2" x="7.95312" y="17.1538" width="66.087" height="3.58974" fill="#BEC8D5" stroke="#002B5A" stroke-width="2" stroke-linecap="round" stroke-linejoin="round"/>
<rect id="Rectangle_3" x="7.95312" y="20.7436" width="66.087" height="3.58974" fill="#BEC8D5" stroke="#002B5A" stroke-width="2" stroke-linecap="round" stroke-linejoin="round"/>
<rect id="Rectangle_4" x="1" y="1" width="80" height="7.17949" fill="#BEC8D5" stroke="#002B5A" stroke-width="2" stroke-linecap="round" stroke-linejoin="round"/>
</g>
</svg>
