<svg width="24" height="24" viewBox="0 0 24 24" fill="none" xmlns="http://www.w3.org/2000/svg">
<path fill-rule="evenodd" clip-rule="evenodd" d="M3 0H21C22.6545 0 24 1.3455 24 3V21C24 22.6545 22.6545 24 21 24H3C1.3455 24 0 22.6545 0 21V3C0 1.3455 1.3455 0 3 0ZM21 4.5C21 5.32843 20.3284 6 19.5 6C18.6716 6 18 5.32843 18 4.5C18 3.67157 18.6716 3 19.5 3C20.3284 3 21 3.67157 21 4.5ZM12 6C8.6865 6 6 8.6865 6 12C6 15.3135 8.6865 18 12 18C15.3135 18 18 15.3135 18 12C18 8.6865 15.3135 6 12 6ZM8.25 12C8.25 14.067 9.933 15.75 12 15.75C14.067 15.75 15.75 14.067 15.75 12C15.75 9.9315 14.067 8.25 12 8.25C9.933 8.25 8.25 9.9315 8.25 12Z" fill="#BEC8D4"/>
</svg>
