<svg width="24" height="24" viewBox="0 0 24 24" fill="none" xmlns="http://www.w3.org/2000/svg">
<path fill-rule="evenodd" clip-rule="evenodd" d="M3 0H21C22.6545 0 24 1.3455 24 3V21C24 22.6545 22.6545 24 21 24H3C1.3455 24 0 22.6545 0 21V3C0 1.3455 1.3455 0 3 0ZM20.825 16.7832C20.8313 16.7957 20.8361 16.8051 20.8396 16.8113C21.4359 17.8705 20.178 17.9537 20.178 17.9537L17.7737 17.9898C17.7737 17.9898 17.2573 18.0995 16.5777 17.5994C16.2224 17.3379 15.875 16.9112 15.5439 16.5047C15.0375 15.8829 14.5694 15.3081 14.1701 15.4436C13.4995 15.6714 13.5209 17.2174 13.5209 17.2174C13.5209 17.2174 13.5265 17.5476 13.3735 17.7235C13.2081 17.9151 12.883 17.9537 12.883 17.9537H11.8074C11.8074 17.9537 9.43347 18.1067 7.34194 15.775C5.06253 13.2312 3.04863 8.18583 3.04863 8.18583C3.04863 8.18583 2.93275 7.85566 3.05876 7.69539C3.20052 7.51585 3.58642 7.5038 3.58642 7.5038L6.15836 7.48693C6.15836 7.48693 6.40138 7.53031 6.57464 7.66647C6.71752 7.77854 6.79741 7.98821 6.79741 7.98821C6.79741 7.98821 7.21369 9.1149 7.76385 10.1331C8.8383 12.1226 9.33897 12.5576 9.70462 12.3443C10.2368 12.0334 10.077 9.53304 10.077 9.53304C10.077 9.53304 10.0871 8.62446 9.80925 8.22078C9.59436 7.90748 9.18933 7.8159 9.01044 7.79059C8.86531 7.7701 9.1027 7.40981 9.41097 7.24833C9.87338 7.00613 10.6913 6.99167 11.6566 7.00251C12.4093 7.01095 12.6253 7.06156 12.9201 7.13747C13.6029 7.3138 13.5817 7.87966 13.5358 9.10091C13.5221 9.46539 13.5063 9.88825 13.5063 10.3765C13.5063 10.4867 13.5033 10.6042 13.5002 10.7251C13.4841 11.3499 13.4657 12.0655 13.8494 12.3311C14.0463 12.4672 14.529 12.3516 15.7339 10.1596C16.3055 9.12092 16.7341 7.89904 16.7341 7.89904C16.7341 7.89904 16.8275 7.68214 16.9727 7.58815C17.1223 7.49295 17.3226 7.52187 17.3226 7.52187L20.0273 7.505C20.0273 7.505 20.8407 7.40137 20.9723 7.7942C21.1107 8.20632 20.6685 9.17033 19.5626 10.7489C18.5085 12.2535 17.998 12.8027 18.0502 13.2919C18.0879 13.6454 18.4194 13.9676 19.0518 14.5965C20.3886 15.9254 20.7424 16.6209 20.825 16.7832Z" fill="#BEC8D4"/>
</svg>
